<?xml version="1.0" encoding="UTF-8"?>
<svg id="Layer_2" data-name="Layer 2" xmlns="http://www.w3.org/2000/svg" viewBox="0 0 737.31 208.76">
  <defs>
    <style>
      .cls-1 {
        fill: #ecfffb;
      }

      .cls-2 {
        fill: #e3fffa;
      }

      .cls-3 {
        fill: #dffff9;
      }

      .cls-4 {
        fill: #d7fff8;
      }

      .cls-5 {
        opacity: .8;
      }

      .cls-6 {
        fill: #d0fff6;
      }

      .cls-7 {
        fill: #c5fff4;
      }

      .cls-8 {
        fill: #a8ffef;
      }

      .cls-9 {
        fill: #bdfff3;
      }
    </style>
  </defs>
  <g id="Layer_2-2" data-name="Layer 2">
    <g class="cls-5">
      <g class="cls-5">
        <path class="cls-8" d="M459.05,139.37c3.07,15.35,5.69,5.19,9-.82-.71-.28-1.42-.62-2.15-.99-2.26.64-4.54,1.28-6.85,1.81Z"/>
        <path class="cls-8" d="M465.9,137.56c.73.37,1.44.71,2.15.99.42-.75.83-1.42,1.26-1.96-1.12.34-2.27.66-3.41.97Z"/>
        <path class="cls-8" d="M457.76,131.51c.44,3.17.88,5.74,1.3,7.87,2.31-.53,4.59-1.17,6.85-1.81-2.67-1.35-5.39-3.29-8.15-6.06Z"/>
        <path class="cls-8" d="M469.32,136.59c1.19-.37,2.43-.66,3.6-1.06-1.32-1.04-2.5-.36-3.6,1.06Z"/>
        <path class="cls-1" d="M543.24.05c-7.33,0-14.64-.02-21.94-.02-7.29-.03-14.56-.03-21.81,0-7.24.03-14.46.06-21.67.1-7.2.07-14.38.14-21.56.2,9.01,7.12,17.87,14.39,25.55,18.92,11.63,7.41,22.19,6.22,32.24,1.45,10.06-4.74,19.56-13.29,29.2-20.64Z"/>
        <path class="cls-3" d="M413.59,2.2c-9.55.28-19.12.56-28.69.84,9.69,2.9,19.48,3.59,28.69-.84Z"/>
        <path class="cls-1" d="M542.53,4.41c-9.65,7.36-19.17,15.88-29.23,20.63-10.06,4.78-20.63,5.95-32.26-1.45-7.69-4.54-16.55-11.79-25.57-18.94-11.43.06-22.81.24-34.17.4-11.37.11-22.7.38-34.02.58-9.24,4.37-19.03,3.55-28.69.65-44.69,1.08-89.33,2.62-134.66,4.52-5.66.24-11.34.49-17.03.73-5.81.27-11.64.55-17.49.83-12.12.61-25.02,1.42-38.7,2.68-3.47.34-6.86.64-10.41,1.04-3.58.42-7.16.85-10.74,1.28-7.36,1.01-14.73,2.03-22.51,3.45-15.42,2.74-31.7,6.42-48.73,11.73-2.02.67-6.07,2.48-10.99,5.08-1.24.66-2.51,1.33-3.85,2.11-1.35.8-2.74,1.65-4.15,2.54-2.81,1.78-5.7,3.71-8.52,5.73-2.84,2.11-5.65,4.42-8.23,6.7-2.58,2.32-4.94,4.53-6.99,6.99-4.09,4.79-6.8,9.33-7.22,13.01-2.98,5.15-5.76,10.47-8.37,15.62l3.01,4.74c5.65-3.1,11.48-5.95,17.27-8.62,2.89-1.39,5.76-2.93,8.59-4.62,2.83-1.59,5.61-3.41,8.36-5.59,3.69-1.74,6.75-4.54,9.91-7.43,1.58-1.44,3.17-2.88,4.85-4.14,1.68-1.27,3.39-2.2,5.25-2.86,16.78-5.83,32.67-8.34,47.87-11.37,15.25-3.05,30.07-6.77,45.54-14.67,2.23-1.77,5.19-1.76,8.24-.7,3.08,1.03,6.45,2.99,9.79,4.95,6.52,4,12.99,7.99,17.11,4.62,2.18-.56,4.36-1.01,6.5-1.34,2.1-.33,4.18-.55,6.26-.68,4.2-.26,8.14-.17,12.12.17,7.93.67,15.73,2.31,23.46,3.95,7.72,1.6,15.37,3.18,22.99,3.82,3.81.32,7.61.4,11.4.12,3.79-.31,7.57-.97,11.35-2.12,6.15-2.15,11.74-4.61,17.05-7.06,5.31-2.44,10.35-4.93,15.42-7,10.15-4.15,20.43-6.77,33.32-5.24,5.58-.66,13.23-7.65,18.79-8.33,36.92,1.68,73.87,2.82,111.91,9.51,8.34-1.25,20.4,21.62,27.88,14.25,9.33-13.79,19.52-21.48,29.66-29.37,2.77-.46,8.51,17.11,14.1,16.19,11.16.57,20.99-4.27,30.43-9.56,9.46-5.26,18.5-11.13,28.22-12.72-1.41-1.59-2.79-3.03-4.17-4.39-10.09-.1-20.13-.19-30.14-.29-9.97-.05-19.91-.11-29.8-.16Z"/>
        <g>
          <path class="cls-1" d="M664.02.24c-2.49,3.52-5,6.63-7.51,9.02,10.24,4.22,20.86,5.75,31.14,4.44,10.27-1.38,20.19-5.63,29.05-12.88-8.9-.14-17.74-.25-26.51-.32-8.76-.09-17.49-.18-26.18-.26Z"/>
          <path class="cls-1" d="M632.99,4.37c.26.31.52.61.78.91-10.48-.14-20.92-.29-31.3-.43,1.37,1.35,2.76,2.8,4.17,4.39,5.77-.96,11.76-.44,18.25,2.61,1.73.89,3.49,1.68,5.25,2.43,1.91-1.79,3.81-4.09,5.72-6.57.51.6,1,1.13,1.52,1.77,6.34,7.33,12.75,5.83,19.14-.22-1.76-.73-3.53-1.52-5.27-2.41-6.5-3.04-12.51-3.49-18.25-2.49Z"/>
        </g>
        <path class="cls-7" d="M655.25,167.15c-11.76-7.08-19.11-2.7-26.38,2.5-3.63,2.59-7.23,5.38-11.33,6.97-4.1,1.58-8.69,1.98-14.27-.14-8.05-2.56-15.56-2.92-22.79-2.08-7.23.84-14.17,2.97-21.03,5.53,8.38.6,16.7,1.18,24.95,1.63,8.24.39,16.42.62,24.54.61,8.12,0,16.16-.32,24.12-1.04,7.97-.72,15.87-1.76,23.68-3.39-1.02-2.86-1.71-6.28-1.49-10.6Z"/>
        <path class="cls-6" d="M722.08,75.35c-3.84,10.11-10.26,15.96-20.98,14.72-18.22-2.6-35.79-17.7-49.88-15.08-5.08.19-10.08,1.23-15.05,2.85-4.97,1.6-9.92,3.74-14.85,6.18-9.88,4.89-19.76,10.94-29.89,15.75-10.12,4.84-20.47,8.58-31.21,8.77-10.74.22-21.84-2.92-33.44-11.93-21.27-15.1-41.41-15.17-61.71-10.69-10.15,2.18-20.32,5.56-30.63,8.69-10.31,3.08-20.76,6.02-31.4,7.4-8.51,1.06-18.38,14.55-26.94,15.62-28.5,3.38-54.18,6.26-79.89,8.83-10,.99-16.46-5.99-23.16-12.23-6.71-6.26-13.65-11.73-24.75-7.66-2.84.26-9.59-11.34-12.42-11.12-8.1,1.41-16.25,2.65-24.45,3.73-8.2,1.08-16.55,1.94-24.97,2.72-16.88,1.57-34.16,2.82-51.83,4.57-17.67,1.75-35.77,3.96-54.24,8.01-18.44,4-37.29,9.75-55.68,18.26,6.74,11.53,13.79,22.41,20.83,32.06,9.02-6.72,19.52-11.44,30.44-14.41,10.92-3.04,22.34-4.11,33.55-4.37,5.6-.18,11.24.06,16.76.24,5.58.34,11.05.64,16.51,1.12,10.89.85,21.54,1.81,31.97,2.13,14.16,1.65,28.36,2.13,42.81,1.68,14.43-.45,28.8-1.62,43.15-2.99,28.73-2.58,57.36-5.6,86.74-2.74,13.74,1,28.03,2.03,42.28,1.86,7.13-.06,14.25-.36,21.29-1,7.03-.7,13.99-1.74,20.79-3.23-.41-2.12-.82-4.7-1.25-7.87,2.75,2.79,5.44,4.75,8.11,6.12,1.15-.3,2.28-.62,3.42-.94,1.11-1.41,2.3-2.09,3.6-1.05-1.18.41-2.41.7-3.6,1.05-.44.54-.86,1.2-1.28,1.95,11.29,4.47,21.75-1.82,31.05-8.08,9.31-6.28,17.46-12.67,24.46-8.35,12.07,7.48,24.16,9.79,36.1,9.37,11.95-.38,23.71-3.74,35.19-7.54,22.96-7.68,44.63-17.69,64.77-12.1,10,1.45,19.47,1.89,28.44,1.4,4.48-.25,8.83-.76,13.05-1.53,4.21-.78,8.28-1.88,12.22-3.23,7.86-2.73,15.17-6.6,21.87-11.81,6.7-5.25,12.79-11.81,18.26-19.82-1.43-1.64-2.82-3.39-4.16-5.3Z"/>
        <path class="cls-4" d="M708.23,20.28c-1.87-3.42-3.54-6.35-4.87-8.6-9.16,18.73-22.83,29.44-38.29,35.85-7.73,3.19-15.93,5.21-24.24,6.63-8.31,1.44-16.75,2.14-25.01,2.64-2.81.51-10.58-10.46-17.24-15.44-15.01-3.52-18.24,27.87-30.53,23.85-53.27-15.66-102.48-11.36-151.24-1.07-48.69,10.27-96.95,26.52-146.34,34.27-5.67.52-2.89-30.3-11.91-35.56-11.53-2.01-22.06-1-32.38-1.7-5.16-.33-10.26-1.05-15.39-2.72-2.57-.84-5.12-1.91-7.74-3.29-2.64-1.39-5.3-3.09-8-5.16-1.65-2.92-4.35.36-7.65,5.22-1.65,2.43-3.43,5.25-5.34,7.89-1.94,2.66-3.97,5.13-6.06,6.85-15.57,10.58-31.73,9.27-49.06,8.24-4.32-.28-8.76-.43-13.16-.52-4.44-.02-8.97.24-13.42.75-4.51.65-9.02,1.65-13.42,3.17-2.22.83-4.42,1.79-6.58,2.89-1.08.55-2.15,1.14-3.2,1.76-.53.31-1.05.63-1.58.97-.53.35-1.05.72-1.57,1.09-2.15,1.91-4.35,3.57-6.59,5.03-1.12.74-2.26,1.4-3.41,2.08-1.15.7-2.31,1.36-3.48,1.99-2.34,1.26-4.73,2.39-7.14,3.44-2.41,1.09-4.85,2.25-7.29,3.32-9.77,4.21-19.75,9.17-27.59,17.21,2,3.86,4.09,7.65,6.23,11.38,18.39-8.51,37.24-14.27,55.68-18.26,18.47-4.04,36.58-6.25,54.24-8.01,17.67-1.74,34.95-2.99,51.83-4.57,8.42-.78,16.77-1.65,24.97-2.72,8.2-1.08,16.36-2.32,24.45-3.73,2.83-.22,9.58,11.38,12.42,11.12,17.11-6.32,22.67,22.44,47.9,19.88,26.19-2.61,50.97-5.4,79.89-8.83,8.56-1.06,18.43-14.56,26.94-15.62,10.65-1.37,21.09-4.31,31.4-7.4,10.31-3.13,20.48-6.51,30.63-8.69,20.29-4.48,40.44-4.41,61.71,10.69,11.6,9,22.7,12.15,33.44,11.93,10.74-.19,21.09-3.93,31.21-8.77,10.13-4.81,20.01-10.86,29.89-15.75,4.94-2.45,9.88-4.58,14.85-6.18,4.97-1.62,9.97-2.66,15.05-2.85,14.09-2.62,31.66,12.48,49.88,15.08,10.72,1.25,17.13-4.61,20.98-14.72-9.26-13.4-16.06-33.3-20.25-53.75,1.57-.32,4.04-.83,6.4-1.32Z"/>
        <path class="cls-2" d="M732.09,61.96c-19.6-54.99-35.45-71.29-17.73-38.76-2.35.48-4.82.99-6.4,1.32,4.21,20.45,11.05,40.35,20.33,53.73,1.75-4.62,2.97-10.12,3.8-16.29Z"/>
        <path class="cls-2" d="M700.16,6.4c-3.27-.05-6.52-.1-9.78-.15-8.91,7.23-18.87,11.35-29.14,12.68-10.28,1.3-20.89-.37-31.1-4.65-6.42,6.05-12.84,7.49-19.14.11-1.48-1.88-2.92-3.54-4.35-5.15-9.71,1.59-18.76,7.45-28.22,12.72-9.45,5.29-19.28,10.13-30.43,9.56-5.59.92-11.33-16.64-14.1-16.19-10.14,7.89-20.32,15.58-29.66,29.37-7.49,7.37-19.54-15.5-27.88-14.25-38.04-6.69-75-7.82-111.91-9.51-5.56.68-13.21,7.67-18.79,8.33-12.89-1.53-23.17,1.09-33.32,5.24-5.07,2.07-10.11,4.56-15.42,7-5.31,2.44-10.9,4.91-17.05,7.06-3.78,1.14-7.56,1.81-11.35,2.12-3.79.28-7.59.2-11.4-.12-7.62-.64-15.26-2.21-22.99-3.82-7.73-1.64-15.53-3.28-23.46-3.95-3.98-.34-7.92-.43-12.12-.17-2.07.13-4.16.35-6.26.68-2.14.33-4.32.78-6.5,1.34-4.12,3.38-10.59-.62-17.11-4.62-3.34-1.96-6.7-3.92-9.79-4.95-3.05-1.05-6-1.07-8.24.7-15.47,7.89-30.29,11.62-45.54,14.67-15.2,3.03-31.09,5.54-47.87,11.37-1.87.66-3.58,1.59-5.25,2.86-1.67,1.26-3.27,2.7-4.85,4.14-3.16,2.89-6.22,5.69-9.91,7.43-2.75,2.18-5.53,4-8.36,5.59-2.83,1.69-5.69,3.23-8.59,4.62-5.8,2.67-11.62,5.52-17.27,8.62l11.14,17.52c1.39,2.96,2.84,5.87,4.33,8.77,7.83-8.04,17.82-13,27.59-17.21,2.45-1.07,4.88-2.22,7.29-3.32,2.41-1.05,4.8-2.18,7.14-3.44,1.17-.63,2.33-1.29,3.48-1.99,1.15-.68,2.28-1.34,3.41-2.08,2.25-1.47,4.44-3.13,6.59-5.03.52-.37,1.04-.75,1.57-1.09.52-.33,1.05-.65,1.58-.97,1.06-.62,2.13-1.21,3.2-1.76,2.16-1.1,4.36-2.06,6.58-2.89,4.4-1.52,8.91-2.52,13.42-3.17,4.46-.51,8.98-.77,13.42-.75,4.41.09,8.85.24,13.16.52,17.33,1.03,33.49,2.34,49.06-8.24,2.09-1.72,4.13-4.19,6.06-6.85,1.91-2.65,3.69-5.46,5.34-7.89,3.3-4.86,6-8.14,7.65-5.22,2.69,2.08,5.36,3.77,8,5.16,2.62,1.39,5.17,2.46,7.74,3.29,5.13,1.67,10.23,2.39,15.39,2.72,10.33.7,20.86-.31,32.38,1.7,9.02,5.27,6.24,36.08,11.91,35.56,49.4-7.75,97.65-24.01,146.34-34.27,48.76-10.3,97.97-14.59,151.24,1.07,12.3,4.03,15.52-27.37,30.53-23.85,6.66,4.98,14.44,15.94,17.24,15.44,8.25-.5,16.7-1.2,25.01-2.64,8.31-1.42,16.5-3.45,24.24-6.63,15.45-6.41,29.13-17.12,38.29-35.85-1.97-3.35-3.2-5.28-3.2-5.28Z"/>
        <path class="cls-7" d="M367.41,180.52c12.72-1.14,25.81-2.06,39.48-2.31.84-.1,2.9-.18,5.77-.25-15.23-.93-31-2.51-45.25,2.56Z"/>
        <path class="cls-7" d="M434.9,177.57c14.72-.14,31.39-.54,40.32-.85-11-8.53-21.99-13.81-33.41-12.28,0,0-4.01,12.36-6.91,13.13Z"/>
        <g>
          <path class="cls-9" d="M678.42,171.77c20.32-7.08,40.05-18.5,58.9-36.49-22.33,1.55-41.02,16.58-58.9,36.49Z"/>
          <path class="cls-7" d="M726.24,80.65c-5.47,8.02-11.56,14.57-18.26,19.82-6.7,5.22-14.01,9.08-21.87,11.81-3.93,1.36-8,2.45-12.22,3.23-4.21.77-8.56,1.28-13.05,1.53-8.96.49-18.44.05-28.44-1.4-20.14-5.59-41.81,4.42-64.77,12.1-11.48,3.8-23.24,7.16-35.19,7.54-11.94.42-24.03-1.89-36.1-9.37-7-4.33-15.15,2.06-24.46,8.35-9.3,6.26-19.75,12.55-31.05,8.08-3.35,5.98-6.04,16.12-9,.75-6.8,1.49-13.76,2.53-20.79,3.23-7.04.64-14.16.94-21.29,1-14.25.17-28.54-.86-42.28-1.86-29.37-2.86-58.01.16-86.74,2.74-14.35,1.37-28.72,2.54-43.15,2.99-14.44.45-28.64-.03-42.81-1.68-10.43-.33-21.08-1.28-31.97-2.13-5.47-.48-10.93-.78-16.51-1.12-5.52-.18-11.16-.42-16.76-.24-11.22.26-22.64,1.33-33.55,4.37-10.92,2.97-21.42,7.69-30.44,14.41,10.31,14.14,20.28,25.89,28.28,33.72,2,1.95,3.89,3.65,5.65,5.07,1.81,1.47,3.5,2.65,5.05,3.52,1.56.87,2.99,1.41,4.29,1.59.66.1,1.25.07,1.88.01.63-.06,1.23-.22,1.81-.48,10.93.07,21.24.3,31.73.21,10.46-.07,21.06-.41,32.04-1.08,21.97-1.3,45.53-3.82,71.15-7.65,18.48-9.11,36.95-14.7,55.73-13.22-9.41,2.41-18.77,6.11-28.12,10.85,22.92-3.57,45.83-7.78,69.68-11.42-.73-.19-1.45-.26-2.18-.43,5.73-.68,11.48-1.34,17.38-1.85,7.15-2.48,14.65-3.33,22.28-3.4,7.63-.08,15.39.66,23,1.12,5.27-.12,13.38-.17,22.24-.23,2.91-.68,29.39-9.18,40.32-.57,3.02-.11,5.16-.23,6.02-.35,26.81-.44,52.81,2.07,78.19,4.08,6.87-2.52,13.83-4.56,21.07-5.38,7.23-.84,14.75-.38,22.78,2.23,22.29,8.67,52.47-1.23,53.46,1.6,7.3-1.46,14.54-3.4,21.71-5.8,9-9.91,18.2-18.62,27.95-24.96,9.74-6.38,20.01-10.5,31.2-11.15,4.9-4.58,9.73-9.68,14.5-15.18,8.64-10.02,10.32-23.93,8.34-38.72-2.35-1.72-4.59-3.84-6.72-6.29Z"/>
        </g>
      </g>
    </g>
  </g>
</svg>