<?xml version="1.0" encoding="UTF-8"?>
<svg id="Layer_2" data-name="Layer 2" xmlns="http://www.w3.org/2000/svg" viewBox="0 0 223.69 148.89">
  <defs>
    <style>
      .cls-1 {
        stroke: #b68cff;
      }

      .cls-1, .cls-2 {
        fill: none;
        stroke-miterlimit: 10;
      }

      .cls-2 {
        stroke: #1e725e;
      }
    </style>
  </defs>
  <g id="Layer_1-2" data-name="Layer 1">
    <rect class="cls-2" x="114.52" y="19.32" width="89.86" height="89.86" transform="translate(92.13 -93.93) rotate(45)"/>
    <g>
      <g>
        <path class="cls-1" d="M.5,85.28C.5,50.4,28.73,22.17,63.61,22.17s63.11,28.23,63.11,63.11"/>
        <path class="cls-1" d="M116.2,85.28c0-29.07-23.52-52.59-52.59-52.59S11.02,56.21,11.02,85.28"/>
        <path class="cls-1" d="M21.54,85.28c0-23.26,18.82-42.07,42.07-42.07s42.07,18.82,42.07,42.07"/>
        <path class="cls-1" d="M95.16,85.28c0-17.44-14.11-31.55-31.55-31.55s-31.55,14.11-31.55,31.55"/>
        <path class="cls-1" d="M42.57,85.28c0-11.63,9.41-21.04,21.04-21.04s21.04,9.41,21.04,21.04"/>
        <path class="cls-1" d="M74.13,85.28c0-5.81-4.7-10.52-10.52-10.52s-10.52,4.7-10.52,10.52"/>
      </g>
      <path class="cls-1" d="M137.24,85.28c0,34.88-28.23,63.11-63.11,63.11S11.02,120.16,11.02,85.28"/>
      <path class="cls-1" d="M21.54,85.28c0,29.07,23.52,52.59,52.59,52.59s52.59-23.52,52.59-52.59"/>
      <path class="cls-1" d="M116.2,85.28c0,23.26-18.82,42.07-42.07,42.07s-42.07-18.82-42.07-42.07"/>
      <path class="cls-1" d="M42.57,85.28c0,17.44,14.11,31.55,31.55,31.55s31.55-14.11,31.55-31.55"/>
      <path class="cls-1" d="M95.16,85.28c0,11.63-9.41,21.04-21.04,21.04s-21.04-9.41-21.04-21.04"/>
      <path class="cls-1" d="M63.61,85.28c0,5.81,4.7,10.52,10.52,10.52s10.52-4.7,10.52-10.52"/>
    </g>
  </g>
</svg>