<?xml version="1.0" encoding="UTF-8"?>
<svg id="Layer_2" data-name="Layer 2" xmlns="http://www.w3.org/2000/svg" viewBox="0 0 137.74 127.22">
  <defs>
    <style>
      .cls-1 {
        fill: none;
        stroke: #b68cff;
        stroke-miterlimit: 10;
      }
    </style>
  </defs>
  <g id="Layer_1-2" data-name="Layer 1">
    <g>
      <g>
        <path class="cls-1" d="M.5,63.61C.5,28.73,28.73.5,63.61.5s63.11,28.23,63.11,63.11"/>
        <path class="cls-1" d="M116.2,63.61c0-29.07-23.52-52.59-52.59-52.59S11.02,34.54,11.02,63.61"/>
        <path class="cls-1" d="M21.54,63.61c0-23.26,18.82-42.07,42.07-42.07s42.07,18.82,42.07,42.07"/>
        <path class="cls-1" d="M95.16,63.61c0-17.44-14.11-31.55-31.55-31.55s-31.55,14.11-31.55,31.55"/>
        <path class="cls-1" d="M42.57,63.61c0-11.63,9.41-21.04,21.04-21.04s21.04,9.41,21.04,21.04"/>
        <path class="cls-1" d="M74.13,63.61c0-5.81-4.7-10.52-10.52-10.52s-10.52,4.7-10.52,10.52"/>
      </g>
      <path class="cls-1" d="M137.24,63.61c0,34.88-28.23,63.11-63.11,63.11S11.02,98.49,11.02,63.61"/>
      <path class="cls-1" d="M21.54,63.61c0,29.07,23.52,52.59,52.59,52.59s52.59-23.52,52.59-52.59"/>
      <path class="cls-1" d="M116.2,63.61c0,23.26-18.82,42.07-42.07,42.07s-42.07-18.82-42.07-42.07"/>
      <path class="cls-1" d="M42.57,63.61c0,17.44,14.11,31.55,31.55,31.55s31.55-14.11,31.55-31.55"/>
      <path class="cls-1" d="M95.16,63.61c0,11.63-9.41,21.04-21.04,21.04s-21.04-9.41-21.04-21.04"/>
      <path class="cls-1" d="M63.61,63.61c0,5.81,4.7,10.52,10.52,10.52s10.52-4.7,10.52-10.52"/>
    </g>
  </g>
</svg>