<?xml version="1.0" encoding="UTF-8"?>
<svg id="Layer_2" data-name="Layer 2" xmlns="http://www.w3.org/2000/svg" viewBox="0 0 114.85 77.37">
  <defs>
    <style>
      .cls-1 {
        stroke-miterlimit: 10;
        stroke-width: 6px;
      }

      .cls-1, .cls-2 {
        stroke: #000;
      }

      .cls-3 {
        fill: #2effcd;
      }

      .cls-2 {
        fill: none;
        stroke-linecap: round;
        stroke-linejoin: round;
        stroke-width: 15px;
      }
    </style>
  </defs>
  <g id="Layer_1-2" data-name="Layer 1">
    <path class="cls-1" d="M27.57,4.73c-2.61,0-4.7,2.17-4.59,4.8.11,2.48,2.25,4.39,4.73,4.39h18.67s.02,0,.02-.02V4.74s0-.02-.02-.02h-18.82ZM41.28,50.38c0,4.87-1.2,8.64-3.59,11.29-2.4,2.66-5.81,3.99-10.23,3.99s-8.08-1.34-10.58-4.02c-1.78-1.91-2.93-4.38-3.44-7.4-.38-2.23-2.28-3.87-4.54-3.87h-1.29c-2.8,0-4.98,2.49-4.55,5.26.79,5.1,2.79,9.24,6,12.42,4.26,4.21,10.31,6.31,18.15,6.31s13.72-2.09,18.05-6.29c4.32-4.19,6.48-10.09,6.48-17.7v-2.58c0-1.63-1.32-2.95-2.95-2.95h-4.56c-1.63,0-2.95,1.32-2.95,2.95v2.58ZM41.28,4.74v23.47c0,1.63,1.32,2.95,2.95,2.95h4.56c1.63,0,2.95-1.32,2.95-2.95V4.74s0-.02-.02-.02h-10.42s-.02,0-.02.02Z"/>
    <polyline class="cls-2" points="67.9 27.92 67.9 7.5 86.12 7.5 107.35 68.52"/>
    <line class="cls-2" x1="67.9" y1="68.52" x2="67.9" y2="49.71"/>
    <path class="cls-3" d="M85.74,38.71h0c0,3.39-2.5,6.14-5.59,6.14h-5.19c-.71,0-1.29-.64-1.29-1.42v-9.45c0-.78.58-1.42,1.29-1.42h5.19c3.09,0,5.59,2.75,5.59,6.14Z"/>
  </g>
</svg>