<?xml version="1.0" encoding="UTF-8"?>
<svg id="Layer_2" data-name="Layer 2" xmlns="http://www.w3.org/2000/svg" viewBox="0 0 307.48 242.59">
  <defs>
    <style>
      .cls-1 {
        stroke-miterlimit: 10;
        stroke-width: 10px;
      }

      .cls-1, .cls-2 {
        stroke: #000;
      }

      .cls-3 {
        fill: #2effcd;
      }

      .cls-2 {
        fill: none;
        stroke-linecap: round;
        stroke-linejoin: round;
        stroke-width: 41px;
      }
    </style>
  </defs>
  <g id="Layer_1-2" data-name="Layer 1">
    <path class="cls-3" d="M233.58,117.48h0c0,13.84-10.07,25.06-22.5,25.06h-20.87c-2.87,0-5.2-2.59-5.2-5.79v-38.53c0-3.2,2.33-5.79,5.2-5.79h20.87c12.42,0,22.5,11.22,22.5,25.06Z"/>
    <path class="cls-1" d="M86.65,6.22c-8.66,0-15.63,7.2-15.24,15.94.36,8.24,7.48,14.58,15.72,14.58h62.04s.05-.02.05-.05V6.27s-.02-.05-.05-.05h-62.52ZM132.18,157.89c0,16.18-3.98,28.69-11.94,37.52-7.96,8.84-19.29,13.26-33.99,13.26s-26.86-4.45-35.16-13.34c-5.93-6.35-9.74-14.54-11.43-24.57-1.25-7.4-7.56-12.87-15.07-12.87h-4.3c-9.31,0-16.53,8.27-15.11,17.47,2.61,16.95,9.26,30.7,19.94,41.26,14.14,13.98,34.24,20.97,60.3,20.97s45.59-6.96,59.96-20.89c14.36-13.92,21.54-33.52,21.54-58.81v-8.56c0-5.41-4.39-9.8-9.8-9.8h-15.15c-5.41,0-9.8,4.39-9.8,9.8v8.56ZM132.18,6.27v77.99c0,5.41,4.39,9.8,9.8,9.8h15.15c5.41,0,9.8-4.39,9.8-9.8V6.27s-.02-.05-.05-.05h-34.63s-.05.02-.05.05Z"/>
    <polyline class="cls-2" points="204.81 20.5 252.94 20.5 286.98 214.46"/>
  </g>
</svg>