{
	"asset":{
		"generator":"Khronos glTF Blender I/O v4.4.55",
		"version":"2.0"
	},
	"scene":0,
	"scenes":[
		{
			"name":"Scene",
			"nodes":[
				0
			]
		}
	],
	"nodes":[
		{
			"mesh":0,
			"name":"Earth"
		}
	],
	"materials":[
		{
			"doubleSided":true,
			"name":"Clouds",
			"pbrMetallicRoughness":{
				"baseColorFactor":[
					0.800000011920929,
					0.800000011920929,
					0.800000011920929,
					1
				],
				"metallicFactor":0,
				"roughnessFactor":0.5
			}
		},
		{
			"doubleSided":true,
			"emissiveFactor":[
				1,
				0.8173580169677734,
				0.3929535150527954
			],
			"name":"Light",
			"pbrMetallicRoughness":{
				"baseColorFactor":[
					0,
					0,
					0,
					1
				]
			}
		},
		{
			"doubleSided":true,
			"name":"Building Base",
			"pbrMetallicRoughness":{
				"baseColorFactor":[
					0.8001892566680908,
					0.27451157569885254,
					0.15278775990009308,
					1
				],
				"metallicFactor":0,
				"roughnessFactor":0.5
			}
		},
		{
			"doubleSided":true,
			"name":"Grass",
			"pbrMetallicRoughness":{
				"baseColorFactor":[
					0.08282493054866791,
					0.8001194596290588,
					0.13533423840999603,
					1
				],
				"metallicFactor":0,
				"roughnessFactor":0.5
			}
		},
		{
			"doubleSided":true,
			"name":"Water",
			"pbrMetallicRoughness":{
				"baseColorFactor":[
					0.19026321172714233,
					0.41377925872802734,
					0.800070583820343,
					1
				],
				"metallicFactor":0,
				"roughnessFactor":0.5
			}
		},
		{
			"doubleSided":true,
			"name":"Dirt",
			"pbrMetallicRoughness":{
				"baseColorFactor":[
					0.9712939262390137,
					0.4985080361366272,
					0.2761858403682709,
					1
				],
				"metallicFactor":0,
				"roughnessFactor":0.5
			}
		},
		{
			"doubleSided":true,
			"name":"Leaves",
			"pbrMetallicRoughness":{
				"baseColorFactor":[
					0.4074993133544922,
					0.8002434968948364,
					0.024669721722602844,
					1
				],
				"metallicFactor":0,
				"roughnessFactor":0.5
			}
		}
	],
	"meshes":[
		{
			"name":"Icosphere.027",
			"primitives":[
				{
					"attributes":{
						"POSITION":0,
						"NORMAL":1,
						"TEXCOORD_0":2
					},
					"indices":3,
					"material":0
				},
				{
					"attributes":{
						"POSITION":4,
						"NORMAL":5,
						"TEXCOORD_0":6
					},
					"indices":7,
					"material":1
				},
				{
					"attributes":{
						"POSITION":8,
						"NORMAL":9,
						"TEXCOORD_0":10
					},
					"indices":11,
					"material":2
				},
				{
					"attributes":{
						"POSITION":12,
						"NORMAL":13,
						"TEXCOORD_0":14
					},
					"indices":15,
					"material":3
				},
				{
					"attributes":{
						"POSITION":16,
						"NORMAL":17,
						"TEXCOORD_0":18
					},
					"indices":19,
					"material":4
				},
				{
					"attributes":{
						"POSITION":20,
						"NORMAL":21,
						"TEXCOORD_0":22
					},
					"indices":23,
					"material":5
				},
				{
					"attributes":{
						"POSITION":24,
						"NORMAL":25,
						"TEXCOORD_0":26
					},
					"indices":27,
					"material":6
				}
			]
		}
	],
	"accessors":[
		{
			"bufferView":0,
			"componentType":5126,
			"count":630,
			"max":[
				1.461622714996338,
				1.969893455505371,
				1.7923839092254639
			],
			"min":[
				-1.1266151666641235,
				-1.0928966999053955,
				-1.413129448890686
			],
			"type":"VEC3"
		},
		{
			"bufferView":1,
			"componentType":5126,
			"count":630,
			"type":"VEC3"
		},
		{
			"bufferView":2,
			"componentType":5126,
			"count":630,
			"type":"VEC2"
		},
		{
			"bufferView":3,
			"componentType":5123,
			"count":2400,
			"type":"SCALAR"
		},
		{
			"bufferView":4,
			"componentType":5126,
			"count":240,
			"max":[
				0.26002237200737,
				1.2798020839691162,
				0.3857972323894501
			],
			"min":[
				-1.2372095584869385,
				0.11487917602062225,
				-0.21960356831550598
			],
			"type":"VEC3"
		},
		{
			"bufferView":5,
			"componentType":5126,
			"count":240,
			"type":"VEC3"
		},
		{
			"bufferView":6,
			"componentType":5126,
			"count":240,
			"type":"VEC2"
		},
		{
			"bufferView":7,
			"componentType":5123,
			"count":360,
			"type":"SCALAR"
		},
		{
			"bufferView":8,
			"componentType":5126,
			"count":1939,
			"max":[
				0.28843867778778076,
				1.327918529510498,
				0.4025851786136627
			],
			"min":[
				-1.27877938747406,
				0.0924186185002327,
				-0.2536064684391022
			],
			"type":"VEC3"
		},
		{
			"bufferView":9,
			"componentType":5126,
			"count":1939,
			"type":"VEC3"
		},
		{
			"bufferView":10,
			"componentType":5126,
			"count":1939,
			"type":"VEC2"
		},
		{
			"bufferView":11,
			"componentType":5123,
			"count":4380,
			"type":"SCALAR"
		},
		{
			"bufferView":12,
			"componentType":5126,
			"count":118,
			"max":[
				1.0539028644561768,
				1.0460364818572998,
				1.0459598302841187
			],
			"min":[
				-1.0551334619522095,
				-1.0324618816375732,
				-0.9859349727630615
			],
			"type":"VEC3"
		},
		{
			"bufferView":13,
			"componentType":5126,
			"count":118,
			"type":"VEC3"
		},
		{
			"bufferView":14,
			"componentType":5126,
			"count":118,
			"type":"VEC2"
		},
		{
			"bufferView":15,
			"componentType":5123,
			"count":303,
			"type":"SCALAR"
		},
		{
			"bufferView":16,
			"componentType":5126,
			"count":173,
			"max":[
				0.9566259384155273,
				0.967949628829956,
				1.0521260499954224
			],
			"min":[
				-0.9566259384155273,
				-0.9999999403953552,
				-0.9478740096092224
			],
			"type":"VEC3"
		},
		{
			"bufferView":17,
			"componentType":5126,
			"count":173,
			"type":"VEC3"
		},
		{
			"bufferView":18,
			"componentType":5126,
			"count":173,
			"type":"VEC2"
		},
		{
			"bufferView":19,
			"componentType":5123,
			"count":657,
			"type":"SCALAR"
		},
		{
			"bufferView":20,
			"componentType":5126,
			"count":278,
			"max":[
				1.010528564453125,
				1.0139862298965454,
				1.0459598302841187
			],
			"min":[
				-1.0117592811584473,
				-1.0324618816375732,
				-0.9859349727630615
			],
			"type":"VEC3"
		},
		{
			"bufferView":21,
			"componentType":5126,
			"count":278,
			"type":"VEC3"
		},
		{
			"bufferView":22,
			"componentType":5126,
			"count":278,
			"type":"VEC2"
		},
		{
			"bufferView":23,
			"componentType":5123,
			"count":462,
			"type":"SCALAR"
		},
		{
			"bufferView":24,
			"componentType":5126,
			"count":384,
			"max":[
				0.6112233400344849,
				0.7361006736755371,
				-0.6113576292991638
			],
			"min":[
				-0.18461930751800537,
				-0.5224117636680603,
				-1.0770851373672485
			],
			"type":"VEC3"
		},
		{
			"bufferView":25,
			"componentType":5126,
			"count":384,
			"type":"VEC3"
		},
		{
			"bufferView":26,
			"componentType":5126,
			"count":384,
			"type":"VEC2"
		},
		{
			"bufferView":27,
			"componentType":5123,
			"count":540,
			"type":"SCALAR"
		}
	],
	"bufferViews":[
		{
			"buffer":0,
			"byteLength":7560,
			"byteOffset":0,
			"target":34962
		},
		{
			"buffer":0,
			"byteLength":7560,
			"byteOffset":7560,
			"target":34962
		},
		{
			"buffer":0,
			"byteLength":5040,
			"byteOffset":15120,
			"target":34962
		},
		{
			"buffer":0,
			"byteLength":4800,
			"byteOffset":20160,
			"target":34963
		},
		{
			"buffer":0,
			"byteLength":2880,
			"byteOffset":24960,
			"target":34962
		},
		{
			"buffer":0,
			"byteLength":2880,
			"byteOffset":27840,
			"target":34962
		},
		{
			"buffer":0,
			"byteLength":1920,
			"byteOffset":30720,
			"target":34962
		},
		{
			"buffer":0,
			"byteLength":720,
			"byteOffset":32640,
			"target":34963
		},
		{
			"buffer":0,
			"byteLength":23268,
			"byteOffset":33360,
			"target":34962
		},
		{
			"buffer":0,
			"byteLength":23268,
			"byteOffset":56628,
			"target":34962
		},
		{
			"buffer":0,
			"byteLength":15512,
			"byteOffset":79896,
			"target":34962
		},
		{
			"buffer":0,
			"byteLength":8760,
			"byteOffset":95408,
			"target":34963
		},
		{
			"buffer":0,
			"byteLength":1416,
			"byteOffset":104168,
			"target":34962
		},
		{
			"buffer":0,
			"byteLength":1416,
			"byteOffset":105584,
			"target":34962
		},
		{
			"buffer":0,
			"byteLength":944,
			"byteOffset":107000,
			"target":34962
		},
		{
			"buffer":0,
			"byteLength":606,
			"byteOffset":107944,
			"target":34963
		},
		{
			"buffer":0,
			"byteLength":2076,
			"byteOffset":108552,
			"target":34962
		},
		{
			"buffer":0,
			"byteLength":2076,
			"byteOffset":110628,
			"target":34962
		},
		{
			"buffer":0,
			"byteLength":1384,
			"byteOffset":112704,
			"target":34962
		},
		{
			"buffer":0,
			"byteLength":1314,
			"byteOffset":114088,
			"target":34963
		},
		{
			"buffer":0,
			"byteLength":3336,
			"byteOffset":115404,
			"target":34962
		},
		{
			"buffer":0,
			"byteLength":3336,
			"byteOffset":118740,
			"target":34962
		},
		{
			"buffer":0,
			"byteLength":2224,
			"byteOffset":122076,
			"target":34962
		},
		{
			"buffer":0,
			"byteLength":924,
			"byteOffset":124300,
			"target":34963
		},
		{
			"buffer":0,
			"byteLength":4608,
			"byteOffset":125224,
			"target":34962
		},
		{
			"buffer":0,
			"byteLength":4608,
			"byteOffset":129832,
			"target":34962
		},
		{
			"buffer":0,
			"byteLength":3072,
			"byteOffset":134440,
			"target":34962
		},
		{
			"buffer":0,
			"byteLength":1080,
			"byteOffset":137512,
			"target":34963
		}
	],
	"buffers":[
		{
			"byteLength":138592,
			"uri":"Earth.bin"
		}
	]
}
