<?xml version="1.0" encoding="UTF-8"?>
<svg id="Layer_2" data-name="Layer 2" xmlns="http://www.w3.org/2000/svg" viewBox="0 0 876.27 997.9">
  <defs>
    <style>
      .cls-1 {
        opacity: .85;
      }

      .cls-2 {
        fill: #83e5ff;
      }

      .cls-3 {
        fill: #cff5ff;
      }

      .cls-4 {
        fill: #e0f8ff;
      }

      .cls-5 {
        fill: #95e9ff;
      }

      .cls-6 {
        fill: #a4ecff;
      }

      .cls-7 {
        fill: #b2efff;
      }

      .cls-8 {
        fill: #f3fcff;
      }

      .cls-9 {
        fill: #bff1ff;
      }
    </style>
  </defs>
  <g id="Layer_1-2" data-name="Layer 1">
    <g class="cls-1">
      <g class="cls-1">
        <path class="cls-4" d="M34.29,448.26c2.88-2.73,5.88-5.32,8.77-8.07l2.5,4.22c12.59-11.83,25.16-23.64,37.78-35.5,5.23-3.81,9.67-6.51,14.93-10.35,9.04-7.55,5.65-.6,8.14,1.02,13.39-7.93,19.47-10.41,31.79-20.09,31.61-35.46,16.54-5.17,24.97-6.23,12-12.77,23.97-25.51,35.04-37.29-3.08,7.46,12.38-7.04,8.99,2.43,32.11-29.51,37.71-30.25,41.66-28.64,3.16-2.28,6.22-4.72,9.29-7.18-1.94,4.31-3.89,8.61-5.84,12.93,11.01-6.82,29.98-30.51,45.09-45.62-3.22,7.31-6.37,14.57-9.44,22.03-3.99,5.13-7.94,10.21-11.92,15.33-9.8,10.2-21.76,22.66-31.56,32.86-7.83,7.02-15.71,14.09-23.53,21.11-4.81-.44-10.94,4.44-15.32,9.71-27.54,27.03-12.17,19.86-13.38,25.39-3.98,4.63-9.37,10.89-13.32,15.47-8.17,6.51-16.35,13.03-24.52,19.55-11.11,4.24-32.2,29.41-27.08,15.36-5.24,5.28-12.69,12.78-17.88,18.01-3.5,1.75-6.89,3.65-11.31,6.36,1.53-2.49,3.05-4.98,3.66-6.49,7.44-7.68,15.01-15.2,22.57-22.71,3.88-3.57,13.82-12.22,11.72-5.7,28.67-32.7,56.32-59.49,72.16-73.39,11.01-14.33-6.33,2.01-2.97-4.96-2.78.45-5.65.72-7.58-.03-17.48,18.69-22.06,23.59-26.66,28.5-.93-1.54-1.99-3.23,1.68-9.69-8.9,5.27-9.86,3.75-17.32,8.87-21.41,22.24-17.14,14.28-19.5,15.38-35.47,31.51-48.72,37.26-53.41,31.96,7.09-8.35,8.41-13.73,10.98-19.57-16.17,13.4-25.66,20.26-42.87,39.56-.47,1.65-2.01,4.13-2.63,5.64-.15,4.73-.31,9.5.46,13.27,1.54.09,4.15-.67,6.61-1.55,7.93-6.97,15.83-13.92,23.77-20.91-11.68,15.81-8,19.37-12.44,29.56-4.86,6.9-9.68,14.04-15.45,21.93-13.38,10.48-10.83,2.27-13.88-.27.62-6.43,1.38-12.72,2.15-18.99-4.27.49-8.63.79-12.91,1.27-5.84-2.15-27.66,14.46-11.72-6.91,1.83-4.5,3.85-8.64,5.8-12.98,4.66-4.89,9.28-9.74,13.94-14.63Z"/>
        <path class="cls-8" d="M93.47,413.25c-2.57,5.84-3.89,11.21-10.98,19.57,4.68,5.3,17.94-.45,53.41-31.96,2.36-1.1-1.9,6.85,19.5-15.38,7.45-5.12,8.42-3.6,17.32-8.87-3.68,6.46-2.62,8.15-1.68,9.69,4.6-4.91,9.18-9.81,26.66-28.5,1.93.75,4.8.49,7.58.03-3.36,6.97,13.98-9.38,2.97,4.96-15.83,13.9-43.49,40.69-72.16,73.39,2.1-6.52-7.84,2.13-11.72,5.7-7.56,7.51-15.13,15.04-22.57,22.71-1.06-1.73-2.02-3.3-3.08-5.03-1.05-1.74-1.99-3.31-3.07-5.03-16.58,17.68-5.64-4.3-29.28,24.3,4.44-10.2.76-13.75,12.44-29.56-7.94,6.98-15.84,13.94-23.77,20.91-2.46.88-5.07,1.64-6.61,1.55-.77-3.77-.61-8.54-.46-13.27.62-1.51,2.16-4,2.63-5.64,17.21-19.29,26.7-26.16,42.87-39.56Z"/>
        <path class="cls-3" d="M66.37,478.83c23.64-28.6,12.7-6.63,29.28-24.3,1.08,1.71,2.02,3.29,3.07,5.03,1.06,1.73,2.02,3.3,3.08,5.03-.61,1.51-2.13,4-3.66,6.49,4.42-2.71,7.81-4.62,11.31-6.36,5.19-5.23,12.64-12.74,17.88-18.01-5.11,14.06,15.97-11.12,27.08-15.36,8.17-6.52,16.35-13.04,24.52-19.55,3.95-4.58,9.33-10.85,13.32-15.47,1.21-5.52-14.16,1.64,13.38-25.39,4.38-5.26,10.51-10.15,15.32-9.71,7.82-7.01,15.7-14.09,23.53-21.11,9.8-10.2,21.76-22.66,31.56-32.86,6.11-2.41,11.22-4.03,17.31-6.45.26.55.58,1.05.9,1.53,4.27-2.94,7.73-4.73,11.05-6.67-8.38,10.46-16.6,20.74-24.98,31.2-7.39,12.75,19.09-18.44,24.38-19.72-3.87,8.65-8.61,18.26-12.44,26.89,13.81-2.2-40.66,60.02-15.98,45.81-3.07,7.31-6.15,14.65-8.22,21.17,7.41-2.73,15.76-6.49,23.19-9.29,1.34,2.21,2.71,4.39,4.09,6.56-4.75,4.66-6.15,7.35-8.55,10.84,1.99,3.22,32.74-30.73,27.65-14.34-.05,2.33-1.03,5.69-2,9.03,3.49.68,6.98,1.37,9.55,3.06,1.91,3.02,3.7,5.85,5.6,8.87.3.52.64,1.01,1.03,1.7-2.06,8.88-21.72,26.23-27.63,36.27-1.87,6.69,11.65-.95-8.34,23.14.61,3.36.44,7.9.13,12.29,7.52-2.64,21.5-16.91,18.06-7.83,1.09,1.68,2.04,3.2,3.14,4.86.3.53.62,1.04,1.07,1.68,16.61-17.28,13.74-9.71,11.05-4.35,2.98-.18,6.04-.16,8.1.68-16.61,19.67,1.26,6.69-12.81,25.56-2.29,8.42-4.66,16.66-6.14,23.92,13.41-7.92,53.85-47.95,22.11-11.15-3.36,9.11,13.88-4.76,6.77,10.4-.59,6.25-1.05,12.64-2.5,19.9,5.42-3.57,10.93-6.99,16.44-10.38.99,1.5,2.1,3.17,3.09,4.67,1.98.66,4.88.26,6.73.78,12.33-9.53,24.43-17.09,4.28,6.54.34.49.66.99.97,1.52,18.92-20.74,10.23-5.66,20.23-16.39,6.49-6.65,8.59-3.51-1.19,9.91.33.5.67,1,1.11,1.67,2.08.83,5.05.6,8.02.39,16.45-17.39,13.7-9.79,11.1-4.39,3.5.62,7.02,1.22,9.64,2.88,3.3.26,5.82,1.73,9.1,2.02,20.2-23.39,16.85-9.8-2.83,19.01.64,1.02,1.45,2.16,2.11,3.15,6.65-6.35,12.42-11.66,18.2-17.01.67,3.36,7.47,1.83-3.05,16.35.65,1.01,1.45,2.14,2.12,3.13,14.78-12.74,1.1,4.05,3.21,4.82.13.14.33.51.56.83,9.54-11.31,19.08-22.63,28.65-33.98,23.98-24.61-2.46,10.3-3.61,15.53-1.18,2.88,2.52-.92,5.43-3.5,32.05-38.14-10.93,23.11,17.46-6.57,2.42,1.26-25.93,33.31-12.76,25.03,31.02-34.99,17.31-4.38,16.91,4.18,9.27-9.34,18.67-18.55,27.12-26.92-9.38,19.59,2.97,10.7,17.11-.14,14.15-10.83,30.08-23.62,28.05-11.68-11.39,20.07,14.05-4.62,2.6,15.26,26.94-31.6,28.58-26.37,30.27-21.35,1.69,5.02,3.43,9.81,30.4-22.79,5.19.72-.84,17.02,15.59,2.15-17.25,25.06-19.55,28.51-18.25,28.09,6.93-5.86,16.56-19.21,25.15-29.5.24,2.66-.45,6.19-1.05,9.89-17.83,19.62-14.63,21.92-22.44,33.36,32.1-33.14-13.88,32.1-6.88,33.09,10.31-5.56,53.45-63.41,38.31-33.22,22.14-22.5,21.82-20.64,17.15-7.04-16.32,23.98-14.06,27.16-22.63,44.21-6.6,8.57-12.26,16.27-19.71,25.9-2.77,4.99-6.41,11.07-10.04,17.15-22.25,31.25-40.24,55.04-48.2,70.6-6.4,7.65-14.21,16.99-20.62,24.64-6.63,1.82-15.63,11.53-16.56,10.21,8.33-12.28,17.98-26.52,26.35-38.85-6.45,4.67-13.5,9.78-19.94,14.44-1.29-1.79-2.57-3.59-3.85-5.38-9.02,9.7-18.03,19.37-26.18,27.98-2.03,1.6-3.25,2.18-5.29,3.8,3.3-8.77,7.59-18.42,10.9-27.15,5.84-9.72,11.78-19.24,17.51-29.09,5.91-7.33,11.01-13.65,20.27-25.13-.23-4.9-.61-9.9-1.7-13.73-.02-4.53-.8-7.82-.79-12.38,4.63-6.91,9.99-15.03,14.52-22.12-5.67,5.48-12.17,11.96-17.73,17.6-5.61,3.27,8.78-16.84-3.3-4.72-17.69,24.46-11.79,10.24-21.03,12.79,1.75-4.25,3.62-8.36,5.38-12.63-11.29,8.68-20.2,20.78-26.86,27.1-3.49,1.82-6.95,3.62-10.43,5.44-14.55,19.89-15.77,15.9-22.67,21.88,6.65-15.41-21.28,17.06-14.64,1.66-5.44,3.57-19.56,24.08-21.59,23.48-.44-.69-.79-1.19-1.16-1.65,6.51-8.81,13.03-17.65,19.42-26.63-.47-.65-1.05-1.45-15.23,9.93,7.51-9.7,15.85-20.41,24.31-30.96-.3-2.66.4-6.25.11-8.92-2.91,2.62-5.82,5.21-8.84,7.66-3.9-1.05-6.92-3.16-10.79-4.24,32.15-37.78-15.42,7.36,21.08-35.62-.34-.5-.68-.98-1.02-1.48-23.37,27.76-26.65,34.42-45.2,55.5.68-3.55.4-6.25,1.1-9.82,7.78-9.32,16.37-19.63,25-29.98,15.81-27.37-21.93,22.97-23.97,19.97,2.31-5.78,5.6-12.42,8.79-19.25,4.86-6.71,3.3-6.65,2.72-7.47-5.31,3.65-14.27,15.84-21.31,23.94-.88-1.35-1.82-2.66-2.68-4.03-7.17,3.41-24.08,26.87-27.31,26.78,17.99-26.55,27.71-39.92,49.86-69.54-9.83,9.85-20.88,20.93-30.76,30.83-8.59,8.1-4.74-.09-7.59.29,8.98-12.15,15.9-22.73,31.86-40.73,1.3-2.73,2.47-5.61,2.79-7.48-7.54,7.42-15.02,14.79-22.43,22.35-.91-1.31-1.81-2.66,1.68-9.15-2.36-1.09-5.55-1.2-8.74-1.32,1.92-6.44,2.86-12.01,3.9-17.39-6.68,3.98-14.12,9.15-20.82,13.14-4.96,1.94-9.01,2.81-13.1,3.72,1.92-8.79,3.86-17.59,4.82-25.53-.35-.48-.67-1-1.12-1.65-3.51,4.08-7.9,9.2-12.27,14.3-5.07,4.11-10.11,8.2-14.4,11.11-4.41,2.75-7.94,4.47-11.46,6.18-1.01-1.51-2.12-3.18-3.24-4.86-.67-1.01-1.32-2.04-2.12-3.19,10.75-18.97,2.52-10.33,5.15-15.75-5.75,3.1-16.63,17.15-22.81,21.9-.66-1.02-1.44-2.2-2.1-3.22,16.82-28.59,2.93-16.71,4.92-25.51-1.11-1.68-2.11-3.2-3.21-4.88-7.63,7.28-15.25,14.55-22.79,21.99-7.99,6.77-15.95,13.51-23.93,20.27-3.75,1.32-7.53,2.66-12.1,5.2,3.55-6.43,7.1-12.86,10.65-19.28,1.22-5.26,2.45-10.49,3.78-15.56,3.12-4.73,5.42-8.23,7.78-11.8-5.99,5.04-13,10.94-18.99,15.98-5.66,3.18-11.46,6.21-17.13,9.37-.12-.15-.34-.49-.54-.86,8.45-10.76,16.81-21.71,24.3-31.66-.34-.51-.67-1.01-1.12-1.68-16.93,16.8-18.61,21.35-25.85,29.26-2.99,2.5-6.01,5.02-9.01,7.53-4.44-4.46,31.01-40.36,16.13-32.39-7.37,7.73-14.73,15.45-21.99,23.33-.88-1.36-1.78-2.73-2.66-4.09,3.04-7.26,5.2-13.52,8.33-20.57,1.39-7.44,1.98-13.67,2.6-19.93-18.08,14.97-12.04,17.29-29.37,35.83-18.8,16.35-20.27,18.86-22.63,22.39-4.05,8.09,11.41-8.65,11.6-5.9-1.68,2.18-2.36,3.52-3.92,5.87-9.86,11.06-19.7,22.09-30.45,34.15-5.83,5.35-11.54,10.85-18.15,17.35-.99.81-3.01,2.48-5.04,4.15.32-4.24.79-8.36.22-11.61,4.61-4.84,6.05-7.36,8.42-10.89,4.04-8.09-11.44,8.61-11.66,5.85,5.26-8.54,9.55-16.3,13.83-24.04,6.77-13.47-17.16,11.69-17.39,6.57-.56-.85-1.01-1.54-1.55-2.43.9-3.37.92-5.76,1.84-9.15-12.37,4.81-12.72-7.85-16.78-14.28-4.83-.31,20.34-33.27-1.22-13.99,2.61-12.84-23.88,3.48-2.34-25.63-15.71,11.59-13.28-1.6-30.25,10.4,2.91-7.56,5.93-14.94,8.98-22.33-10.35,3.05-8.85-9.34-30.81,9.39,3.38-6.86,5.73-12.89,9.12-19.75-1.08-1.75-1.35-4.65-7.61.05,3.17-12.13-4.91-10.43,24.93-43.59-1.23.46-3.37,1.89-5.62,3.15-.66-1.03-1.39-2.27-2.02-3.32-.11-.17-.33-.5-.56-.85-5.45,3.53-9.98,6.06-15.42,9.56-.43-.69-.97-1.56-1.51-2.42-2.36,1.08-3.82,1.19-6.08,2.45-1.69-.23-4.16.68-6.74,1.41,5.77-7.89,10.58-15.03,15.45-21.93Z"/>
        <path class="cls-4" d="M341.29,272.74c2.41-.97,4.95-1.78,6.47-1.78.1,2.65-.81,6.13-1.63,9.79.5.83,1.03,1.65,1.42,2.33-5.46,10.93-10.1,20.71-16.45,32.66.21.33.29.52.55.8,6.1-2.21,12.31-4.54,18.46-6.84.6,1.02,1.33,2.17,1.95,3.16-9.68,11.46-20.25,23.89-29.81,35.51,1.65,2.69,3.3,5.36.43,13.02,8.47-8.47,15.1-14.94,22.65-22.41,5.18-1.51-3.21,14.49,13.56-2.63,17.01-16.83,17.78-22.98,14.72-22.95-8.16,3.97,8.22-13.8,14.75-22.93,6.96-6,13-10.99,20.04-16.82-5,11.63,26.12-6.73-14.89,35.06,3.74,1.16,5.67,4.31,1.83,15.29,6.75-7.85,14.51-16.87,21.22-24.69,7.15-10.46-4.87-5.44,18.68-28.78l5.78,9.36c-3.5,6.67-6.96,13.31-10.53,19.79-10.32,10.38-12.87,16.01-24.17,29.74,7.05-3.37,14.98-7.76,22.01-11.15,14.9-12.75,21.76-21.26,36.53-34.19,1.11,1.81,2.22,3.63,3.35,5.41-12.36,21.68-33.92,38.37-55.03,63.16-2.35,3.47-4.74,7-7.91,11.7,8.88-2.92,16.95-4.65,25.01-6.41,23.28-21.21-.96,20.32,33.33-17.38,1.75,2.79,2.24,8.46,14.28-1.57,42.95-43.22,24.53-33.76,40.24-52.42,17.7-17.87,10.48-5.23,24.3-19.56,6.48-1.82,12.88-1.34,19.75-2.54.19.33.29.5.48.83.32.46.63.95,1.01,1.61,7.43-5.16,14.06-9.15,20.69-13.15,2.26-1.2,4.45-2.61,5.85-2.83-3.62,6.36-6.37,11.74-9.96,18.09,13.85-9.54,1.92,10.27,2.42,15.85-24.2,26.81-44.68,42.77-39.4,29.41-24.65,28.58-8.93.43-22.64,12.5-40.37,44.79-24.17,43.81-71.08,95.12-29.55,28.17-22.67,10.2-52.02,45.81-8.67,3.26,16.07-27.6,2.65-19.77-7.08,8.08-14.19,16.19-21.31,24.31,8.78,6.43-1.97,35.07,16.62,25.66,33.41-45.99,18.55-7.16,48.83-50.74-.29-2.84.31-6.69-.1-9.68,19.94-19.2,19.32-15.36,16.86-9.64,7.37-6.77,15.8-14.51,23.19-21.3,13.67-9.78,15.06-7.68,22.85-9.85,34.89-41.26,6.39,12.27,51.12-47.04,25.51-31.9,5.7-.7,11.46-3.72-14.51,18.01-2.34,10.66-3.39,16.14,10.16-10.44,16.11-13.14,30.35-31.47-4.91-.48,21.38-26.36,14.51-25.09,10.16-10.44,37.35-46.89,30.46-31.33,44.13-55.38,37.84-31.71,64.41-59.51,19.65-19.43,22.53-14.87,24.28-9.78,38.84-39.64,46.59-34.62,65.94-44.98,6.94-8.23,13.88-16.45,20.82-24.67.1.16.31.46.39.62-5.66,10.25-7.37,14.73-9.29,18.9,11.69-12.78,22.38-24.66,33.93-37.57,9.98-10.52,19.96-21.3,30.83-32.88,1.08,1.66,2.25,3.49,3.31,5.18-28.99,40.5-41.66,44.52-61.73,65.64-4.27,2.9-9.4,6.81-14.51,10.69-7.43,7.45-14.89,14.94-22.22,22.54-13.91,14.03-2.45-8.61-28.57,24.51,1.04-7.84-18.36,14.28-29.06,23.86-15.61,16.21-21.3,28.77-21.91,32.57,28.61-22.19-28.82,47.88,11.77,8.69-11.18,20.57,3.96,15.45-15.22,42.59-10.86,16.36-11.65,19.86-26.88,38.92,6.43-1.96,37.3-32.44,23.93-8.17-5.5,10.3-36.82,47.08-28.14,46.13,8.4-9.28,17.11-18.89,25.88-28.57,9.21-4.83-6.17,18.61-22.37,33.84-2.36,1.11,1.84-6.53-6.84,1.34-4.92,7.37-9.87,14.78-14.74,22.09-4.59,13.96,30.18-19.94,34.09-16.35-15.31,18.83-23.32,32.3-21.18,35.54,14.14-13.68,22.19-15.65,5.19,7.66,6.88-3.71,14.6-8.47,21.42-12.13,7.5-7.42,16.66-19.18,25.3-29.45.81,6.97,11.62,2.79,16.96,4.66,5.35,1.87,5.29,9.74-15.55,41,3.26,2.41,33.26-42.77,30.57-30.74-1.73,11.18-56.46,68.28-39.64,63.08,16.91-20.94,20.31-25.15,24.52-30.36.14,2.45,6.22-.1-4.44,14.01,7.92.15,42-50.41,32.54-27.84,8.97-9.69,16.99-18.5,26.5-27.44,3.06-.04,5.34.9,8.3.7-8.09,9.71-16.77,20.14-24.83,29.81-5.76,8.96-12.4,19.29-18.14,28.22-.99,5.36,11-2.28-3.69,17.3-13.72,18.66-28.29,38.4-42.12,56.92-5.71,9.85-11.64,19.38-17.47,29.09-6.17,9.26-12.31,18.47-18.43,27.67.68.97,1.46,2.1,2.14,3.07-1.64,2.06-3.32,4.17-4.16,5.22-6.82,8.28-13.77,16.4-20.7,24.5-10.75,11.68-10.47,16.52-18.97,26.89-12.81,14.54-25.33,28.74-37.77,42.85,20.45-30.85,25.42-38.36,39.8-60.07,3.37-4.23,5.88-7.37,8.4-10.53,3.63-6.08,7.27-12.15,10.04-17.15,7.45-9.63,13.11-17.33,19.71-25.9,8.57-17.05,6.3-20.23,22.63-44.21,4.66-13.59,4.99-15.46-17.15,7.04,15.14-30.18-28,27.66-38.31,33.22-7-1,38.98-66.23,6.88-33.09,7.81-11.44,4.61-13.74,22.44-33.36.6-3.7,1.29-7.23,1.05-9.89-8.59,10.29-18.22,23.64-25.15,29.5-1.3.42,1-3.03,18.25-28.09-16.43,14.87-10.4-1.43-15.59-2.15-26.97,32.6-28.71,27.81-30.4,22.79-1.69-5.02-3.33-10.25-30.27,21.35,11.45-19.88-13.99,4.81-2.6-15.26,2.03-11.94-13.9.85-28.05,11.68-14.14,10.84-26.49,19.73-17.11.14-8.45,8.37-17.85,17.58-27.12,26.92.39-8.55,14.11-39.17-16.91-4.18-13.17,8.28,15.18-23.77,12.76-25.03-28.39,29.68,14.59-31.56-17.46,6.57-2.91,2.59-6.61,6.38-5.43,3.5,1.15-5.23,27.58-40.14,3.61-15.53-9.57,11.35-19.11,22.67-28.65,33.98-.23-.32-.42-.69-.56-.83-2.11-.77,11.57-17.56-3.21-4.82-.67-.99-1.46-2.12-2.12-3.13,10.52-14.52,3.72-12.99,3.05-16.35-5.79,5.35-11.55,10.66-18.2,17.01-.67-.99-1.47-2.12-2.11-3.15,19.68-28.81,23.03-42.4,2.83-19.01-3.28-.29-5.8-1.75-9.1-2.02-2.62-1.66-6.14-2.26-9.64-2.88,2.6-5.4,5.35-13-11.1,4.39-2.97.21-5.95.44-8.02-.39-.44-.67-.77-1.17-1.11-1.67,9.78-13.43,7.69-16.56,1.19-9.91-10,10.72-1.31-4.35-20.23,16.39-.31-.53-.64-1.03-.97-1.52,20.15-23.63,8.05-16.07-4.28-6.54-1.85-.51-4.74-.12-6.73-.78-.99-1.5-2.09-3.16-3.09-4.67-5.5,3.39-11.02,6.81-16.44,10.38,1.45-7.26,1.91-13.66,2.5-19.9,7.11-15.16-10.13-1.28-6.77-10.4,31.74-36.8-8.7,3.23-22.11,11.15,1.48-7.25,3.85-15.5,6.14-23.92,14.08-18.86-3.8-5.89,12.81-25.56-2.06-.84-5.12-.86-8.1-.68,2.7-5.37,5.57-12.93-11.05,4.35-.45-.65-.78-1.15-1.07-1.68-1.1-1.66-2.05-3.18-3.14-4.86,3.45-9.08-10.53,5.19-18.06,7.83.31-4.39.48-8.93-.13-12.29,19.99-24.1,6.47-16.45,8.34-23.14,5.91-10.04,25.57-27.39,27.63-36.27-.39-.69-.73-1.17-1.03-1.7-1.9-3.01-3.7-5.85-5.6-8.87-2.57-1.69-6.06-2.38-9.55-3.06.97-3.34,1.95-6.71,2-9.03,5.09-16.39-25.66,17.56-27.65,14.34,2.4-3.49,3.8-6.18,8.55-10.84-1.38-2.17-2.75-4.35-4.09-6.56-7.43,2.79-15.78,6.56-23.19,9.29,2.07-6.52,5.15-13.85,8.22-21.17-24.68,14.21,29.79-48.01,15.98-45.81,3.83-8.63,8.57-18.25,12.44-26.89,1.79-1.94,2.72-2.94,4.56-4.93,10.21-9.4,21.78-20.05,32.04-29.49Z"/>
        <path class="cls-9" d="M141.14,656.22c2.03-1.68,4.05-3.34,5.04-4.15,6.61-6.5,12.32-12,18.15-17.35,10.75-12.06,20.59-23.09,30.45-34.15,1.56-2.34,2.24-3.69,3.92-5.87-.19-2.75-15.65,13.98-11.6,5.9,2.35-3.53,3.82-6.04,22.63-22.39,17.33-18.54,11.29-20.87,29.37-35.83-.62,6.26-1.21,12.49-2.6,19.93-3.13,7.05-5.29,13.3-8.33,20.57.88,1.36,1.78,2.73,2.66,4.09,7.26-7.89,14.62-15.6,21.99-23.33,14.89-7.97-20.56,27.93-16.13,32.39,3-2.51,6.02-5.03,9.01-7.53,7.24-7.9,8.92-12.45,25.85-29.26.45.67.78,1.17,1.12,1.68-7.38,10.12-15.5,21.39-23.76,32.52,5.67-3.16,11.47-6.2,17.13-9.37,5.99-5.04,13-10.94,18.99-15.98-2.36,3.57-4.66,7.07-7.78,11.8-1.33,5.06-2.56,10.3-3.78,15.56-3.54,6.42-7.1,12.85-10.65,19.28,4.57-2.54,8.35-3.89,12.1-5.2,7.98-6.76,15.94-13.5,23.93-20.27,7.54-7.44,15.16-14.71,22.79-21.99,1.11,1.68,2.11,3.2,3.21,4.88-1.98,8.8,11.9-3.08-4.92,25.51.66,1.02,1.44,2.2,2.1,3.22,6.18-4.75,17.06-18.8,22.81-21.9-2.63,5.42,5.6-3.22-5.15,15.75.8,1.15,1.45,2.18,2.12,3.19,1.12,1.68,2.24,3.35,3.24,4.86,3.53-1.71,7.05-3.43,11.46-6.18,4.29-2.91,9.34-7,14.4-11.11,4.38-5.1,8.77-10.21,12.27-14.3.46.65.78,1.18,1.12,1.65-.96,7.94-2.91,16.74-4.82,25.53,4.09-.91,8.13-1.78,13.1-3.72,6.7-3.99,14.14-9.16,20.82-13.14-1.05,5.38-1.98,10.95-3.9,17.39,3.19.12,6.38.23,8.74,1.32-3.49,6.5-2.6,7.84-1.68,9.15,7.41-7.56,14.89-14.93,22.43-22.35-.32,1.87-1.49,4.75-2.79,7.48-15.96,18-22.88,28.58-31.86,40.73,2.85-.38-1,7.82,7.59-.29,9.88-9.9,20.93-20.99,30.76-30.83.23.33.35.47.57.82-10.33,13.15-21.15,26.94-31.91,40.63-2.14,3.76-9.78,15.57-18.53,28.09,3.24.09,20.15-23.37,27.31-26.78.87,1.38,1.8,2.68,2.68,4.03,7.04-8.1,16-20.29,21.31-23.94.58.82,2.13.76-2.72,7.47-3.19,6.83-6.48,13.47-8.79,19.25,2.05,3,39.78-47.34,23.97-19.97-8.63,10.35-17.23,20.66-25,29.98-.7,3.57-.42,6.27-1.1,9.82,18.55-21.08,21.83-27.74,45.2-55.5.34.5.68.98,1.02,1.48-36.51,42.97,11.07-2.17-21.08,35.62,3.87,1.08,6.89,3.19,10.79,4.24,3.03-2.45,5.93-5.04,8.84-7.66.3,2.67-.41,6.26-.11,8.92-6.51,13.35-7.88,15.93-10.14,19.58,9.18-5.04-9.23,13.95-18.36,28.08.37.47.72.97,1.16,1.65,2.02.61,16.14-19.91,21.59-23.48-6.63,15.41,21.29-17.07,14.64-1.66,6.9-5.98,8.12-1.98,22.67-21.88,3.48-1.81,6.95-3.62,10.43-5.44,6.65-6.32,15.56-18.42,26.86-27.1-1.76,4.27-3.63,8.38-5.38,12.63,9.24-2.55,3.35,11.67,21.03-12.79,12.08-12.12-2.31,7.98,3.3,4.72,5.56-5.65,12.06-12.12,17.73-17.6-4.53,7.09-9.88,15.21-14.52,22.12,0,4.56.77,7.85.79,12.38,1.09,3.83,1.47,8.83,1.7,13.73-9.26,11.48-14.36,17.8-20.27,25.13-5.73,9.85-11.67,19.37-17.51,29.09-7.41,8.83-16.88,20.11-24.96,29.73-1.65-.12-4.06,1.01-5.71.88-6.24,2.46-12.58,4.73-18.8,7.14-2.55,3.15-5.09,6.28-7.61,9.4-.93-3.51-.87-7.93-1.78-11.45-7.42,8.76-16.81,19.85-24.25,28.62,1.36-4.79,2.72-9.58,4.23-14.22-5.31,3.73-13.97,16.25-20.99,24.24-.36-.5-.71-1-1.19-1.66-.47-.67-1.06-1.51-1.64-2.34,3.39-4.17,5.93-7.27,8.5-10.43,7.65-9.39,16.16-19.84,24.65-30.27,3.23-2.1,6.62-4.11,9.87-6.24,10.69-14.06,21.36-28.09,32.11-42.22-17.78,10.79-25.14,11.51-45.8,34.02-16.52,10.31-7.5-15.16-31.21,9.7-1.68,6.66-1.09,7.51-.62,8.17-17.97,24.06-30.72,35.24-28.68,24.66-16.38,21.79-28.08,32.26-37.38,43.87,12.67-22.57-14.95,10.32-14.27,2.28-6.82,8.27-13.7,16.6-20.57,24.92-2.95,2.62-5.86,5.21-9.77,8.69-.31-4.98-.75-10.1-1.93-14.01-2.74-3.91-5.36-7.64-8.1-11.55,1.38-6.98,1.84-13.15,2.43-19.15,1.65-4.46,3.3-8.93,4.94-13.38,9.75-24.69-20.21,16.39-22.08,11.47,2.19-8.23,4.53-16.29,6.74-24.48,7.22-19.11-5.48-10.19,14.02-34.54-18.76,18.53-11.54,3.82-21.79,14.11-12.93,4.18-7.41-13.09-20.8-9.63-4.37.53-8.96.69-14.32,2.07-.46-.69-1.04-1.56-1.63-2.4,5.79-7.69,10.69-14.35,15.46-21.16.55-6.14-6.16.17-11.11,4.42-11.13,4.42-11.53-10.1-17.21-13.86-4.52,4.94-9.14,9.69-12.89,13.44,1.74-4.45,3.55-8.7,5.15-13.29-1.01-1.57-2.17-3.28-3.2-4.82-9.06,7.44-19.04,15.92-28.9,24.54-1.79-.38-4.5.31-6.29-.07,5.07-6.46,11.12-13.73,16.18-20.19-31.11,23.61,8.64-29.08-16.04-12.26,15.73-16.2,14.02-21.21,6.14-14.3.3-1.86,1.63-4.58,1.93-6.44,11.2-13.7,22.38-27.39,33.45-41.25.7-5.88,1.44-12.11,2.14-18-2.23-1.04-5.25-.89-7.39-1.75-15.12,13.87-31.38,28.78-46.53,42.67-5.41,7.66-10.69,15.13-16.1,22.79-14.29,11.38-15.65,9.28-16.92,7.39,1.35-2.75,1.65-4.59,2.86-7.47-5.35,3.65-10.75,7.33-16.1,10.97,3.03-4.94,5.14-8.83,7.32-12.51-6.83,1.38-13.69,2.77-19.63,3.12,6.77-10.95,14.49-22.92,21.29-33.86-1.69-2.61-3.26-5.03-4.94-7.64Z"/>
        <path class="cls-8" d="M356.68,461.67c27.47-41.15,37.18-40.38,22.33-22.7-7.42,7.55-14.89,15.14-22.33,22.7Z"/>
        <path class="cls-3" d="M84.4,398.17c-.71,3.84-1.31,7.88-1.07,10.74-12.62,11.86-25.19,23.67-37.78,35.5l-2.5-4.22c7.92-9.46,13.9-17.16,20.82-25.85,7.11-5.76,13.42-10.41,20.52-16.17Z"/>
        <path class="cls-3" d="M280.69,279.83c9.27-9.67,15.99-13.55,24.43-19.58,7.04-5.91,13.22-10.63,19.36-15.58-2.18,3.98-4.22,8.1-6.37,12.07,3.36-1.96,6.81-3.75,10.15-5.7-5.09,6.58-10.3,13.02-16.38,20.4-5.09,4.1-9.26,7.22-14.23,11.47-2.97,2.65-5.91,5.25-9.69,9.05,3.08-7.46,6.22-14.72,9.44-22.03-15.11,15.11-34.08,38.81-45.09,45.62,1.95-4.32,3.89-8.62,5.84-12.93,7.45-7.7,15.01-15.26,22.55-22.77Z"/>
        <path class="cls-3" d="M397.61,195.82c-14.68,20.8,17.9-7.71-3.92,18.68-4.58,4.98-9.14,9.92-12.77,13.87-8.2,6.43-16.49,12.69-24.77,18.91-2.64.66-5.26,1.31-6.97.95-.11-.16-.3-.5-.4-.67,7.7-9.7,12.3-14.67,16.84-19.58,10.51-10.56,21.5-21.6,32-32.15Z"/>
        <path class="cls-3" d="M463.54,150.23c-5.09,6.61-11.16,14.03-16.33,20.47-8.06,8.29-14.31,14.72-22.35,22.98-3.3,1.97-6.75,3.82-10.96,6.77,6.78-8.73,13.59-17.49,20.47-26.05,17.05-19.33,19.21-15.74,29.18-24.17Z"/>
        <path class="cls-3" d="M377.1,247.04c-1.93,4.3-3.87,8.61-6.71,13.91,14.26-11.42,10.69-4.79,12.52-4.3,3.02,0,5.24,1.16,8.33,1.35,1.03,1.63,1.91,3.14,2.92,4.79-1.01,3.32-1.1,5.62-2.13,8.96-1.58,4.78,11.41-1.23-3.69,18.73-6.52,9.12-22.9,26.9-14.75,22.93,3.07-.03,2.29,6.13-14.72,22.95-16.78,17.12-8.38,1.11-13.56,2.63-7.55,7.47-14.18,13.94-22.65,22.41,2.86-7.66,1.21-10.33-.43-13.02,9.56-11.62,20.13-24.05,29.81-35.51-.62-.99-1.35-2.14-1.95-3.16-6.16,2.3-12.36,4.63-18.46,6.84-.26-.28-.33-.47-.55-.8,6.35-11.96,10.99-21.74,16.45-32.66-.39-.68-.92-1.5-1.42-2.33,13.67-14.88,21.86-23.8,30.97-33.71Z"/>
        <path class="cls-3" d="M609.08,19.4c-1.69,2.12-2.42,3.44-4.07,5.77-12.69,13.91-26.31,28.84-39,42.75-3.48,1.7-13.92,11.8-11.34,6.08,12.79-15.33,25.23-30.26,37.63-45.13-3.04,7.54,19.92-16.83,16.78-9.46Z"/>
        <path class="cls-3" d="M57.02,788.69c6.75-4.26,14.16-8.92,20.92-13.18.12.16.32.55.58.87-.91,1.02-2.7,3.05-4.47,5.06-7.37,7.71-13.85,14.42-21.99,23.31-13.1,13.27-15.91,9.01-3.97-5.98,6.24-7.04,8.04-9.06,8.93-10.07Z"/>
        <path class="cls-3" d="M205.85,650.9c2.37,1.2,15.7-13.95,27.05-25.06-.68,1.36-2.34,3.55-3.01,4.9,2.13.86,5.16.7,7.39,1.75-.7,5.89-1.44,12.12-2.14,18-11.07,13.86-22.25,27.55-33.45,41.25-4.2,2.99-9.45,6.87-14.56,10.89-.93-1.36-1.82-2.77-2.76-4.12,13.62-19.45-1.27-4.29-3.3-5.01,4.04-12.74-12.05,7.67-12.19,5.1-.58-.86-1.04-1.54-1.62-2.39,5.41-7.66,10.68-15.13,16.1-22.79,7.57-7.4,15.03-14.96,22.48-22.52Z"/>
        <path class="cls-3" d="M110.08,856.01c-7.41,7.63-14.82,15.25-22.36,22.69-15.47,11.91,3.62-8.57,17.72-29.5,1.55,2.27,3.09,4.54,4.64,6.81Z"/>
        <path class="cls-3" d="M142.13,859.15c.68,3.27.48,7.58.28,11.89.1.19.34.54.61.86,1.67,2.44,3.35,4.88,5.14,7.49,1.04,3.81,1.2,8.65,1.37,13.49-7,10.43,3.65,2.97-8.7,19.38-29.96,25.37-14.38-2.42-36.49,13.65-.7-3.32,17.98-26.7,17.06-30.34-3.6,1.67-7.19,3.34-10.8,5.01-11.41,6.36,11.12-18.3,26.07-37.89,2.12-1.53,4.23-3.04,5.45-3.54Z"/>
        <path class="cls-2" d="M168.76,831.25c1.19,1.72,2.26,3.28,3.46,5,4.96-4.24,8.92-7.62,13.88-11.85-4.55,14.03-3.71,15.24-7.14,21.75,1.7.19,4.15-.81,6.72-1.63,4.65-.14,9.43-.13,14.07-.28-5.1,13.19-5.43,17.34,4.04,5.88.98,1.35,1.91,2.76,2.87,4.12,15.55-18.66,8.37-3.94,7.8-.14,4.25,1.55,7.61,4.16,11.75,5.52.6.86,1.21,1.72,1.8,2.57.1.2.35.53.47.7-6.31,9.07-12.63,18.15-18.98,27.28,8.24-6.33,5.94,1.77,16.68-7.87.25.34.49.67.62.83,1.69,2.42,3.48,4.99,5.17,7.41.48.69.85,1.2,1.19,1.74.72,3.25.44,7.38.28,11.69-4.56,7.05-9.14,14.13-14.56,22.21-7.14,7.93-14.3,15.87-21.32,23.97-5.01-4.86-10.75-8.52-16.65-12.33-1.22-1.73-2.31-3.31-3.55-5.01-2.93-1.92-6.84-2.99-9.9-5.09-5.19,1.71-9.48,2.33-13.91,2.81-2.06-2.96-4.24-6.1-6.42-9.23-27.35,26.83,8.67-19.4-6.3-9.05,12.35-16.41,1.7-8.95,8.7-19.38-.17-4.84-.34-9.67-1.37-13.49-1.79-2.61-3.47-5.05-5.14-7.49-.27-.32-.5-.67-.61-.86.19-4.31.4-8.61-.28-11.89,9.25-9.52,17.5-18.19,26.63-27.9Z"/>
        <path class="cls-3" d="M153.56,930.54c4.43-.48,8.73-1.1,13.91-2.81-4.34,5.15-8.68,10.29-13.03,15.45.04-4.5.06-8.98-.88-12.64Z"/>
        <path class="cls-3" d="M177.37,932.81c1.24,1.7,2.33,3.28,3.55,5.01-24.45,26.27-9.83,6.28-11.32,4.24,2.59-3.09,5.18-6.18,7.77-9.26Z"/>
        <path class="cls-3" d="M224.49,965.48c2.69-2.93,5.51-5.7,8.19-8.62,3.95.98,7.86,2.03,10.78,3.93-2.05,3.78-4.26,7.41-6.45,11.05-26.08,23.94-37.86,34.29-33.12,18.55,6.86-8.3,13.72-16.59,20.6-24.91Z"/>
        <path class="cls-4" d="M94.92,380.35c3.4.65,1.13,4.45-10.52,17.82-7.11,5.76-13.41,10.41-20.52,16.17,1.53-2.45,3.06-4.91,3.58-6.6,9.5-9.4,18.06-17.82,27.46-27.4Z"/>
        <path class="cls-4" d="M324.47,244.66c21.26-19.84,23.33-16.34,18.03-7.62-4.69,4.78-9.46,9.38-14.26,13.99-3.34,1.95-6.79,3.74-10.15,5.7,2.15-3.97,4.2-8.09,6.37-12.07Z"/>
        <path class="cls-4" d="M609.08,19.4c28.37-27.96,25.75-19.65,21.26-12.09-6.98,8.44-13.92,16.86-20.82,25.51-10.27,7.88-18.09,9.86-4.51-7.65,1.65-2.33,2.38-3.65,4.07-5.77Z"/>
        <path class="cls-4" d="M167.47,927.73c3.05,2.1,6.97,3.17,9.9,5.09-2.58,3.08-5.17,6.17-7.77,9.26-22.64,26.6-19.42,19.9-26.84,27.44-3.33-2.46,15.12-23.73,11.68-26.33,4.35-5.16,8.69-10.3,13.03-15.45Z"/>
        <path class="cls-4" d="M218.89,926.19c.73,1.04,1.59,2.25,2.31,3.28-2.71,7.4-4.7,13.62-7.4,21.03-4.29,5.16-8.6,10.35-12.89,15.51-5.54-1.01-31.18,23.63-3.33-15.85,7.02-8.1,14.18-16.03,21.32-23.97Z"/>
        <path class="cls-4" d="M220.92,960.49c1.11,1.55,2.34,3.27,3.58,4.99-6.88,8.32-13.73,16.61-20.6,24.91,1.35-4.87,2.68-9.68,4.16-14.36,4.28-5.17,8.59-10.37,12.87-15.54Z"/>
        <path class="cls-9" d="M67.46,407.75c-.52,1.69-2.05,4.15-3.58,6.6-6.92,8.68-12.9,16.39-20.82,25.85-2.89,2.74-5.89,5.33-8.77,8.07-1.05-1.75-2.11-3.5-3.05-5.08,22.36-28.26,32.69-36.26,36.22-35.44Z"/>
        <path class="cls-9" d="M63.74,496.91c.54.86,1.08,1.73,1.51,2.42,5.44-3.5,9.97-6.03,15.42-9.56.23.34.44.67.56.85.63,1.05,1.36,2.29,2.02,3.32,2.25-1.26,4.39-2.69,5.62-3.15-29.84,33.16-21.77,31.45-24.93,43.59,6.26-4.7,6.53-1.8,7.61-.05-3.38,6.85-5.74,12.89-9.12,19.75-2.66,3.16-5.19,6.48-8.63,10.77-4.48.16-8.98.31-13.47.47-6.4,6.89-11.9,12.81-18.33,19.73-2.66-1.84-6.24-2.69-8.91-4.52,9.69-13.92,11.83-20.31,12.75-26.26-1.73-2.82-3.57-5.81-5.2-8.45-.83-3.78,15.38-19.63,37.01-46.46,2.26-1.26,3.72-1.37,6.08-2.45Z"/>
        <path class="cls-9" d="M342.51,237.05c.29.51.59,1.01,1,1.66,25.7-24.97,17.79-10.45,22.11-10.74-4.53,4.91-9.14,9.88-16.84,19.58-5.57,3.28-11.16,6.57-16.62,9.99-5.89,5.26-11.69,10.69-18.38,17.08-.61-1-1.32-2.17-1.9-3.19,6.08-7.38,11.29-13.81,16.38-20.4,4.79-4.61,9.57-9.21,14.26-13.99Z"/>
        <path class="cls-9" d="M314.03,287.62c-1.55,4.73-3.24,9.89-4.78,14.61-1.84,1.99-2.77,3-4.56,4.93-5.29,1.28-31.78,32.48-24.38,19.72,8.37-10.46,16.6-20.74,24.98-31.2,2.96-2.64,5.89-5.26,8.74-8.07Z"/>
        <path class="cls-9" d="M374.19,242.24c2.35-1.18,3.76-1.34,6.05-2.46-1.41,2.63-1.81,4.44-3.14,7.26-9.11,9.92-17.3,18.84-30.97,33.71.82-3.66,1.73-7.15,1.63-9.79,11.84-12.86,19.15-20.81,26.43-28.72Z"/>
        <path class="cls-9" d="M201.34,494.91c16.97-16.93,25.48-27.74,22.71-22.39,12.62-6.69-25.64,32.29-29.71,35.6,2.99-5.03,4.93-9.2,7-13.21Z"/>
        <path class="cls-9" d="M180.29,532.06c-17.61,18.25-19.73,19.71-22.78,22.19-7.19,3.24,11.46-15.84,29.22-36.29-1.84,4.35-3.69,8.73-6.44,14.1Z"/>
        <path class="cls-9" d="M196.99,522.06c18.56-21.66,31.35-32.9,27.89-23.88-4.74,4.67-9.5,11.69-7.16,10.55-3.95,10.77,15.57-11.75,17.27-6.67,20.27-23.66,17.96-17.62,19.24-15.57.97,1.52,2.05,3.21,3.03,4.73,2.64-.63,5.32-1.29,7.09-.94-7.89,9.38-16.67,19.75-25.54,29.92-.56,1.5-2.04,4.02-2.52,5.72,2.12.85,5.11.72,7.17,1.62-22.06,32.86-16.04,8.55-39.02,42.43-.77-1.18-32.71,25.89.75-10.83,1.25-2.86,1.62-4.73,2.97-7.41-9.26,4.75-17.62,15.8-23.22,21.45-6.47-.46,1.55-12.01,1.82-18.76,32.01-36.68,6.54-21.28,10.23-32.36Z"/>
        <path class="cls-9" d="M138.12,639.57c.22,2.75,15.7-13.94,11.66-5.85-2.36,3.54-3.81,6.05-8.42,10.89.57,3.25.1,7.36-.22,11.61-28.26,28.07-26.38,16.62-23.46,9.17-.23-.35-.45-.69-.57-.86-3.38,1.98-6.86,3.76-10.22,5.7-.48-.67-.81-1.2-1.13-1.74,4.37-7.58,9.55-16.32,13.82-24.07-6.85,3.73,6.65-11.27,14.98-22.31.22,5.12,24.16-20.05,17.39-6.57-4.28,7.74-8.58,15.5-13.83,24.04Z"/>
        <path class="cls-9" d="M168.89,698.6c26.79-27.73,10.05-6,12.19-5.1,2.03.71,16.91-14.44,3.3,5.01-7.68,7.24-15.35,14.47-23.03,21.7-.34-.52-.68-1.05-1.02-1.57-1.46.15-3.81,1.3-6.16,2.46,5.54-8.13,10.07-15.38,14.73-22.5Z"/>
        <path class="cls-9" d="M213.8,950.5c6.16-4.85,13.15-10.72,19.28-15.56.85,1.21,1.59,2.24,2.34,3.24-4.8,7.39-9.67,14.87-14.5,22.3-4.28,5.17-8.59,10.37-12.87,15.54-2.34-3.28-4.81-6.74-7.15-10.02,4.29-5.17,8.6-10.35,12.89-15.51Z"/>
        <path class="cls-7" d="M324.79,848.54c6.87-8.32,13.74-16.65,20.57-24.92-.67,8.04,26.94-24.85,14.27-2.28,9.29-11.6,20.99-22.08,37.38-43.87-2.05,10.58,10.7-.6,28.68-24.66-.48-.66-1.06-1.51.62-8.17,23.71-24.86,14.69.62,31.21-9.7,20.67-22.51,28.03-23.22,45.8-34.02-10.75,14.13-21.41,28.16-32.11,42.22-3.25,2.14-6.64,4.14-9.87,6.24-8.49,10.42-17,20.87-24.65,30.27-2.57,3.16-5.11,6.27-8.5,10.43.58.83,1.18,1.67,1.64,2.34.48.67.83,1.17,1.19,1.66,7.02-7.99,15.68-20.51,20.99-24.24-1.51,4.65-2.87,9.43-4.23,14.22,7.43-8.78,16.83-19.86,24.25-28.62.91,3.52.85,7.95,1.78,11.45,2.53-3.12,5.06-6.25,7.61-9.4,6.22-2.41,12.56-4.68,18.8-7.14,1.65.13,4.06-1,5.71-.88,8.08-9.62,17.55-20.9,24.96-29.73-3.31,8.73-7.59,18.38-10.9,27.15,2.05-1.62,3.26-2.2,5.29-3.8,8.15-8.6,17.16-18.28,26.18-27.98,1.28,1.79,2.57,3.58,3.85,5.38,6.43-4.66,13.48-9.77,19.94-14.44-8.36,12.33-18.02,26.57-26.35,38.85-9.35,11.41-18.83,22.66-28.31,33.91-.75,3.44-1.48,6.84-1.35,9.2-4.81,6.65-10.44,14.34-15.37,20.83-5.16,8.36-9.36,15.84-14.51,24.2-8.14,8.63-17.01,18.5-25.18,27.16-14.67,19.37-28.74,37.96-43.37,57.28-.51-.65-1.09-1.53-1.73-2.32,10.17-14.67,19.42-28.49,29.6-43.16,4.6-4.8,9.13-9.53,13.69-14.28,2.17-3.67,4.33-7.32,6.49-10.97.47-3.75,1.08-7.37.72-10.07,6.72-8.4,9.73-15.32,18.52-27.55-4.8,4.43-9.61,8.85-13.59,12.26-.71-1.01-1.54-2.18-2.25-3.18-9.87,10.74-20.6,22.54-30.35,33.41-.25-.32-.49-.66-.6-.84-6.76,8.41-13.48,16.79-20.24,25.2-.73-1-1.58-2.17-2.31-3.17,11.21-15.53,4.84-11.06-12.55,4.8-1.57-2.18-3.02-4.2-4.58-6.38-1.21-1.68-2.41-3.36-3.5-4.86-6.18,4.78-16.46,19.39-24.31,28.46-1.83,1.94-3.75,3.68-4.84,4.39-3.91,1.31-7.77,2.57-12.5,4.91-3.02-2.01-6.81-2.76-10.7-3.72-.49-5.13-.84-10.1-2.17-14.18.49-3.77,1.11-7.39.74-10.09,3.93-5.76,7.83-11.48,10.87-16.14.75-3.44,1.47-6.84,1.39-9.27,5.74-7.63,11.44-15.22,19.27-26.65-7.78,6.97-15.57,13.96-23.35,20.94-16.13,22.17-25.71,26.59-42.22,48.26-.98.87-2.92,2.59-4.75,4.5.85-3.26,1.84-6.36,1.83-8.57,5.03-8.64,9.32-16.07,13.36-23.81,1.99-6.2,3-11.52,4.02-16.84Z"/>
        <path class="cls-9" d="M548.92,744.92c.93,1.32,9.93-8.4,16.56-10.21-3.19,11.15-18.33,25.51-27.45,37.26-5.96,5-16.75,16.65-18.77,16.06-.13-2.35.6-5.76,1.35-9.2,9.48-11.24,18.96-22.49,28.31-33.91Z"/>
        <path class="cls-6" d="M332.15,257.54c5.47-3.42,11.05-6.71,16.62-9.99.09.17.28.52.4.67-11.69,13.19-23.36,26.36-35.15,39.39-2.85,2.81-5.78,5.43-8.74,8.07-3.32,1.93-6.78,3.72-11.05,6.67-.32-.48-.63-.98-.9-1.53,6.82-8.75,13.62-17.46,20.43-26.2,6.69-6.39,12.49-11.82,18.38-17.08Z"/>
        <path class="cls-7" d="M40.33,565.32c7.06-3.5,15.07-7.74,22.1-11.24-2.66,3.16-5.19,6.48-8.63,10.77-1.54,4.9-3.07,9.78-4.61,14.67,17.33-16.39,14.47-8.63,16.47-7.86.29,2.91-.31,6.79-.82,10.87,4.31-2.91,7.71-4.85,11.2-6.57-4.3,6.14-7.8,11.13-12.12,17.3,0,2.36-.97,5.77-.99,8.15-.6,3.91-1.11,8.01-.81,10.93-5.68,5.61-12.25,12.2-17.82,17.97,2.52-5.72,6.09-12.28,9.53-18.98-25.17,28.3-18.04,25-18.62,28.9-4.56,4.98-9.09,9.92-12.74,13.9-7.81,4.64-14.75,8.32-22.47,13.15,3.23-7.1,6.54-13.98,9.87-20.88.96-5.8,1.92-11.59,2.87-17.38,9.65-8.97,19.36-18.02,28-26.21,3.22-4.68,5.42-8.53,7.6-12.36-3.83,1.21-7.57,2.6-12.31,4.78-5.59,5.76-12.22,12.33-17.94,17.92.63-3.93.33-6.86.94-10.76.99-5.77,1.98-11.56,2.97-17.34,6.43-6.92,11.93-12.84,18.33-19.73Z"/>
        <path class="cls-6" d="M36.03,595.23c4.74-2.18,8.48-3.57,12.31-4.78-2.18,3.83-4.38,7.68-7.6,12.36-8.64,8.19-18.35,17.23-28,26.21,2.41-5.88,3.85-10.99,5.35-15.86,5.72-5.59,12.34-12.16,17.94-17.92Z"/>
        <path class="cls-6" d="M53.84,611.34c-3.44,6.7-7.01,13.26-9.53,18.98,5.56-5.77,12.13-12.35,17.82-17.97,1.23,1.92,2.46,3.84,3.68,5.76,1.63,2.66,3.21,5.09,4.87,7.72-5.36,8.54-11.7,17.88-10.93,19.13,2.73-.61,5.31-1.36,7.2-.76,7.33,1.76,13.83,4.75,20.25,7.51.23.34.46.68.56.86-11.17,18.64-10.51,19.72-9.17,21.83,4.55-5.05,9.02-10,13.53-15,.34.51.7,1.03,1.03,1.55-4.28,10.13-6.08,14.55-13.83,24.06,21.83-21.25,18.14-12.66,16.43-8.06,3.07-2.51,6.1-4.99,10.04-8.47.31.55.65,1.07,1.13,1.74,3.35-1.95,6.84-3.73,10.22-5.7.12.18.34.51.57.86-7.52,9.9-16.06,20.63-24.45,31.52-1.02.83-3.05,2.49-4.16,3.13-.91-1.39-1.82-2.79-2.73-4.19-6.3,7.03-11.67,13.02-17.97,20.04-4.62,2.43-10.25,5.67-15.82,9.14,1.37-2.74,1.91-4.24,3.38-6.79-.24-.33-.36-.51-.59-.85-24.68,16.83-4.89-7.59-7.06-10.91-4.18-1.7-7.48-4.38-11.65-6.11,30.13-37.18,7.54-14.63,5.3-15.78-3.05.06-6.21-.06-8.38-.99-16.97,9.63-.22-17.16-5.69-21.02-1.81-2.79-3.6-5.62-5.38-8.45,3.65-3.98,8.18-8.92,12.74-13.9.59-3.91-6.54-.6,18.62-28.9Z"/>
        <path class="cls-6" d="M106.9,717.85c6.27-7.05,11.61-13.06,17.9-20.13,5.94-.35,12.8-1.75,19.63-3.12-2.18,3.68-4.29,7.57-7.32,12.51-6.55,8.91-12.22,16.84-19.78,26.6,4.72-2.28,8.53-3.55,12.25-5.04-1.2,5.31-2.37,10.59-4.42,16.89,14.38-13.59,19.35-13.15,29.01-24.45,2.35-1.15,4.7-2.31,6.16-2.46.34.53.68,1.05,1.02,1.57-3.51,6.43-7.03,12.88-9.66,18.31,10.38-7.89,3.15,7.08,13.51-.8-3.5,6.46-6.14,11.91-9.63,18.35-4.59,9.55,15.04-10.21-.49,10.98,1.87,2.77,3.73,5.53,5.6,8.31,3.57-1.66,7.17-3.34,11.62-6.01-1.39,2.52-2.82,5.09-3.36,6.65,5.82-3.03,10.6-5.17,16.31-8.38-1.94,4.08-3.76,8.34-5.73,12.46,6.45-4.38,13.66-9.97,20.1-14.36-3.46,6.47-6.93,12.97-10.4,19.45,19.26-15.6,17.5-4.31,33.89-17.25,5.71-5.41,13.95-4.9-.43,10.97-10.84,16.38,15.57-2.48-15.94,31.94-6.92-.91-20.63,18.22-20.66,13.58,5.63-17.14,2.36-17.32-6.73-9.84-6.42,4.37-13.76,9.81-20.08,14.36,4.06-7.83,9.15-16.53,13.24-24.37-.89-3.61-2.64-6.21-17.39,6.82-6.88,12.92-12.94,24.92-19.8,37.88-17.28,18.49-21.69,23.6-26.07,28.69,3.27-11.32,1.66-16.02.82-21.91-1.55-2.27-3.09-4.54-4.64-6.81-.89-3.64-1.16-8.63-1.26-13.48-.14-.15-.38-.5-.49-.69-18.71,11.87-21.45,7.79-11.91-17.67.43-6.38.86-12.72,1.16-19.23,8.07-6.73,16.08-13.41,24.13-20.13,3.72-6.1,7.36-12.38,11.12-18.49-2.1-3.11-25.35,20.59-30.78,21.83-26.24,23.99-34.86,20.44-23.37.09,1.57-2.39,3.12-4.75,3.89-5.93,3.65-6.27,7.4-12.35,11.18-18.45-1.27-1.92-4.21-1.66,4.7-14.14-1.82-.4-4.52.22-7.24.84-.46-.71-.79-1.25-1.15-1.75,10.74-12.09,16.13-18.14,21.47-24.16Z"/>
        <path class="cls-6" d="M234.31,784.39c-1.45,4.79-3.03,9.42-4.47,14.21-2.89,4.95-5.04,8.71-7.08,12.65,3.11-2.41,6.07-4.95,9.92-8.56,2.12,3.09,4.12,6.01,6.24,9.1,14.68-17.63,4.76-.02,15.03-10.28,3.85,1.02-13.01,20.03-12.63,25.19,12.75-13.53,17.1-18.68,21.44-23.81,1.29,1.87,2.71,3.93,4.47,6.49,17.16-16.32,22.79-19.62,15.57-9.48-4.96,6.51-10.78,14.05-15.84,20.39-2.65,12.18,4.36,8.54,15.51-.41,1.31,1.88,2.62,3.75,3.92,5.62-3.5,6.37-7.09,12.54-10.69,18.72,9.55-9.25,17.81-17.25,27.38-26.51-4.44,7.19-9.67,15.64-14.11,22.83.71,1.03,1.54,2.23,2.85,4.11,4.45-4.39,8.73-8.62,13.15-12.99,2.74,3.91,5.36,7.65,8.1,11.55-14.12,18.3-28.98,37.8-43.85,57.35.76-3.46,1.53-6.92,1.42-9.32,13.05-24.27-.8-10.1-8.92-1.28-9.44,6.93-.81-5.68,9.43-20.48-3.54,1.73-7.12,3.51-11.51,6.25,2.87-6.89,6-14.42,8.87-21.33-7.98,6.73-16.07,13.26-24.18,19.8,1.16-7.38.58-8.22-17.53,8.95-.13-.16-.38-.49-.62-.83-10.74,9.63-8.44,1.53-16.68,7.87,6.35-9.13,12.67-18.22,18.98-27.28-.13-.17-.37-.51-.47-.7-.6-.85-1.2-1.71-1.8-2.57-4.14-1.37-7.5-3.97-11.75-5.52.56-3.8,7.74-18.52-7.8.14-.96-1.37-1.89-2.78-2.87-4.12-9.47,11.46-9.14,7.31-4.04-5.88-4.64.15-9.42.15-14.07.28,5.26-6.17,11.38-13.34,16.59-19.46,1.84-4.33,3.75-8.43,5.53-12.68,9.21-9.55,18.31-19.28,26.52-27.98Z"/>
        <path class="cls-5" d="M315.01,857.23c-6.88,10.53-14.72,21.92-21.57,32.44-20.7,22.55-30.84,32.9-34.04,39.63-4.92,11.08,16.39-17.3,11.49-6.27-1.09,2.93-1.47,4.66-2.58,7.61-8.56,10.39-16.24,19.71-24.84,30.15-2.93-1.9-6.83-2.95-10.78-3.93,7.11-12.46,14.12-25.08,20.24-36.61,6.02-7.27,11.18-13.5,16.32-19.7.76-3.46,1.53-6.92,1.42-9.32,14.09-16.04,28.2-32.12,42.42-48.03,1.17,3.91,1.62,9.03,1.93,14.01Z"/>
        <path class="cls-6" d="M324.79,848.54c-1.01,5.32-2.03,10.64-4.02,16.84-8.64,7.97-18.06,17.18-26.86,25-.13-.16-.35-.53-.47-.71,6.85-10.52,14.7-21.92,21.57-32.44,3.91-3.48,6.83-6.07,9.77-8.69Z"/>
        <path class="cls-6" d="M310.33,893.27c16.51-21.67,26.09-26.08,42.22-48.26,7.78-6.98,15.57-13.96,23.35-20.94-7.83,11.43-13.53,19.02-19.27,26.65.08,2.42-.64,5.82-1.39,9.27-3.04,4.66-6.94,10.38-10.87,16.14-5.85,5.25-12.65,11.34-18.48,16.56-4.49.4-8.98.8-14.35,2.26-.35-.53-.74-1.01-1.21-1.68Z"/>
        <path class="cls-6" d="M373.84,894.82c23.45-31.84,32.77-36.69,39.89-40.14-4.11,5.41-8.09,10.97-12.08,16.54,1.57,2.18,3.02,4.2,4.58,6.38,17.39-15.87,23.77-20.33,12.55-4.8.73,1,1.58,2.17,2.31,3.17,6.76-8.41,13.48-16.79,20.24-25.2.11.18.35.52.6.84-1.8,4.13-3.49,8.46-6.15,13.68-6.7,8.35-12.61,15.72-20.21,25.2-12.39,11.63-19.04,13.51-22.47,11.06-6.06,4.98-12.93,10.95-18.97,15.89,3.5-8.5,7.93-17.83,11.45-26.31-3.87,1.29-7.87,2.42-11.74,3.7Z"/>
        <path class="cls-6" d="M439.39,816.96c12.8-13.33,10.24-5.78,12.4-5-8.46,10.49-16.07,19.91-24.53,30.4-.6-.84-1.07-1.51-1.67-2.34,5.19-8.33,9.44-15.78,13.8-23.05Z"/>
        <path class="cls-6" d="M474.53,821.38c3.98-3.41,8.79-7.83,13.59-12.26-8.79,12.23-11.8,19.15-18.52,27.55.36,2.7-.25,6.31-.72,10.07-2.16,3.65-4.31,7.3-6.49,10.97-4.55,4.75-9.08,9.48-13.69,14.28-10.19,14.67-19.43,28.49-29.6,43.16-2.64.74-4.47.46-7.12,1.23,8.03-11.02,15.23-20.98,23.15-32.16-1.08-1.51-2.29-3.18-3.4-4.67,6.1-9.2,12.23-18.43,18.37-27.69,7.6-9.48,16.02-19.99,24.43-30.48Z"/>
        <path class="cls-7" d="M297.64,282.9c4.97-4.25,9.14-7.36,14.23-11.47.59,1.02,1.29,2.2,1.9,3.19-6.82,8.74-13.61,17.45-20.43,26.2-6.1,2.42-11.2,4.04-17.31,6.45,3.98-5.12,7.94-10.21,11.92-15.33,3.78-3.79,6.72-6.4,9.69-9.05Z"/>
        <path class="cls-7" d="M356.14,247.27c8.28-6.22,16.57-12.48,24.77-18.91-2.83,5.26-4.79,9.57-6.73,13.88-7.28,7.91-14.59,15.85-26.43,28.72-1.52,0-4.06.81-6.47,1.78-10.25,9.44-21.82,20.09-32.04,29.49,1.55-4.72,3.23-9.88,4.78-14.61,11.79-13.03,23.46-26.2,35.15-39.39,1.7.35,4.32-.29,6.97-.95Z"/>
        <path class="cls-7" d="M70.67,625.83c12.46-11.88,9.37-4.66,11.83-3.2,13.15-5.89-4.87,28.59,24.79,2.67,8.32-3.85-14.9,17.66-19.55,27.28l4.36,6.83c-4.51,5-8.98,9.95-13.53,15,2.93-7.74,5.68-14.96,8.61-22.69-6.42-2.76-12.92-5.74-20.25-7.51-1.89-.6-4.47.15-7.2.76-.77-1.25,5.57-10.59,10.93-19.13Z"/>
        <path class="cls-7" d="M133.01,619.67c.54.89.99,1.58,1.55,2.43-8.33,11.04-21.83,26.05-14.98,22.31-4.28,7.74-9.45,16.49-13.82,24.07-3.94,3.48-6.97,5.97-10.04,8.47-6.86,1.34-16.41,10.45-16.43,8.06,7.76-9.51,9.55-13.92,13.83-24.06,16.57-17.49,31.57-37.4,39.88-41.28Z"/>
        <path class="cls-7" d="M141.14,656.22c2.03-1.68,4.05-3.34,5.04-4.15.55,3.28.23,7.53-.1,11.79-6.8,10.94-14.51,22.91-21.29,33.86-6.29,7.07-11.63,13.08-17.9,20.13-4.32-4.23-9.69-7.58-13.98-11.85-.23-2.75.52-6.31.31-9.09,8.39-10.9,16.93-21.62,24.45-31.52-2.92,7.45-4.8,18.9,23.46-9.17Z"/>
        <path class="cls-7" d="M153.21,696.13c-1.2,2.88-1.5,4.73-2.86,7.47,1.27,1.89,2.63,3.98,16.92-7.39.57.85,1.04,1.54,1.62,2.39-4.66,7.11-9.18,14.37-14.73,22.5-9.66,11.3-14.63,10.86-29.01,24.45,2.05-6.29,3.22-11.58,4.42-16.89-3.72,1.48-7.53,2.76-12.25,5.04,7.56-9.76,13.23-17.69,19.78-26.6,5.35-3.65,10.75-7.33,16.1-10.97Z"/>
        <path class="cls-7" d="M184.38,698.51c.94,1.35,1.83,2.76,2.76,4.12,5.11-4.02,10.35-7.89,14.56-10.89-.3,1.86-1.63,4.58-1.93,6.44,7.88-6.91,9.59-1.91-6.14,14.3,24.69-16.82-15.06,35.87,16.04,12.26-5.07,6.46-11.12,13.73-16.18,20.19,1.79.38,4.5-.31,6.29.07,12.17-12.21,22.12-20.66,27.75-26.25.35.51.69,1.02,1.15,1.71,1.03,1.54,2.19,3.25,3.2,4.82-1.59,4.58-3.41,8.83-5.15,13.29,3.75-3.74,8.38-8.49,12.89-13.44,5.68,3.76,6.08,18.28,17.21,13.86,4.95-4.25,11.65-10.56,11.11-4.42-4.78,6.8-9.68,13.46-15.46,21.16.59.84,1.17,1.7,1.63,2.4,5.36-1.38,9.95-1.54,14.32-2.07,13.39-3.46,7.87,13.81,20.8,9.63,10.26-10.29,3.04,4.43,21.79-14.11-19.5,24.36-6.8,15.43-14.02,34.54-2.21,8.19-4.55,16.25-6.74,24.48,1.87,4.93,31.84-36.16,22.08-11.47-1.64,4.45-3.29,8.92-4.94,13.38-.59,6-1.05,12.17-2.43,19.15-4.43,4.37-8.71,8.6-13.15,12.99-1.3-1.88-2.13-3.08-2.85-4.11,4.44-7.19,9.67-15.64,14.11-22.83-9.57,9.27-17.83,17.27-27.38,26.51,3.6-6.18,7.19-12.35,10.69-18.72-1.3-1.87-2.61-3.74-3.92-5.62-11.15,8.95-18.16,12.59-15.51.41,5.07-6.34,10.89-13.88,15.84-20.39,7.22-10.14,1.59-6.84-15.57,9.48-1.77-2.56-3.18-4.62-4.47-6.49-4.34,5.12-8.68,10.28-21.44,23.81-.38-5.16,16.48-24.17,12.63-25.19-10.27,10.26-.35-7.35-15.03,10.28-2.12-3.09-4.12-6.01-6.24-9.1-3.86,3.61-6.81,6.15-9.92,8.56,2.03-3.94,4.18-7.71,7.08-12.65,1.44-4.79,3.01-9.42,4.47-14.21-8.21,8.7-17.31,18.43-26.52,27.98-.35-.53-.71-1.03-1.04-1.57,31.51-34.42,5.1-15.56,15.94-31.94,14.38-15.87,6.13-16.38.43-10.97-16.39,12.94-14.62,1.66-33.89,17.25,3.46-6.48,6.94-12.98,10.4-19.45-6.44,4.4-13.66,9.98-20.1,14.36,1.96-4.12,3.78-8.38,5.73-12.46-5.71,3.21-10.49,5.36-16.31,8.38.55-1.55,1.97-4.12,3.36-6.65-4.45,2.67-8.05,4.35-11.62,6.01-1.87-2.77-3.73-5.54-5.6-8.31,15.53-21.19-4.1-1.43.49-10.98,3.49-6.44,6.12-11.89,9.63-18.35-10.36,7.88-3.13-7.09-13.51.8,2.63-5.43,6.15-11.87,9.66-18.31,7.68-7.24,15.35-14.47,23.03-21.7Z"/>
        <path class="cls-7" d="M293.95,614.75c.87,1.38,1.78,2.71,2.67,4.08-9.71,11.19-20.29,23.38-30,34.56-.23-.34-.35-.5-.56-.86,1.09-3.05,1.17-5.25,2.26-8.29,11.47-13.19,18.56-21.34,25.63-29.48Z"/>
        <path class="cls-7" d="M282.24,644.08c-9.11,14.41-10.73,18.99-19.01,27.65-1.13-1.71-2.15-3.24,1.12-10.02,6.53-6.63,12.14-12.2,17.89-17.63Z"/>
        <path class="cls-7" d="M309.97,673.89c13.05-13.12,9.18-4.99,12.06-5.34.67,1.02,1.45,2.23,2.17,3.2-7.33,9.14-13.14,16.37-20.42,25.43-3,.18-5.25-.84-8.26-.65-.94-1.34,7.24-12.42,14.45-22.63Z"/>
        <path class="cls-7" d="M304.82,698.7c4.1-.87,8.2-1.73,12.31-2.6-5.36,10.55-11.48,17.76-19.32,26.96-.47-5.24-5.79-3.87-9.6-4.89,7.87-9.22,12.21-14.31,16.61-19.47Z"/>
        <path class="cls-7" d="M388.47,710.78c-9.12,12.45-18.48,25.22-27.59,37.66-1.28-1.86-2.67-3.88-3.95-5.74,10.46-16.8,30.68-35.46,31.54-31.92Z"/>
        <path class="cls-7" d="M378.23,739.29c-.78,3.4-1.58,6.83-1.5,9.2-20.42,25.19-28.06,27.86-7.69.32,2.84-2.79,5.65-5.55,9.2-9.52Z"/>
        <path class="cls-7" d="M396.27,756.07c1.9.48-9.94,12.96-15.72,20.57-10.94,9.22-4.73-4.51,4.02-16.92,24.83-32.47,6.01-.48,11.7-3.65Z"/>
        <path class="cls-7" d="M504.33,702.44c14.19-15.91,11.45-8.57,18.92-15.92-.68,5.73-5.23,15.02-21.79,34.2-5.19,3.93-10.36,7.84-14.7,10.71,5.87-9.68,11.72-19.33,17.57-28.99Z"/>
        <path class="cls-5" d="M41.92,684.6c2.24,1.14,24.83-21.4-5.3,15.78,1.45-4.92,2.93-9.85,5.3-15.78Z"/>
        <path class="cls-2" d="M68.36,715.89c.89,1.43,1.83,2.8,2.73,4.22,8.66-3.32,14.87-8.13,21.82-14.11,4.29,4.28,9.66,7.62,13.98,11.85-7.14,8.03-13.43,15.11-21.47,24.16.36.5.69,1.04,1.15,1.75-5.34,6.02-10.73,12.08-16.96,19.08-14.66,8.56-20.79,11.12-13.64.66-6.45-4.99-12.82-10.07-18.32-16.12-6.9,3.73,6.6-11.3,14.89-22.36,5.56-3.47,11.19-6.7,15.82-9.14Z"/>
        <path class="cls-5" d="M86.33,695.85c.91,1.4,1.82,2.79,2.73,4.19,1.11-.64,3.14-2.3,4.16-3.13.21,2.78-.54,6.34-.31,9.09-6.95,5.98-13.16,10.8-21.82,14.11-.9-1.42-1.84-2.79-2.73-4.22,6.3-7.02,11.67-13.01,17.97-20.04Z"/>
        <path class="cls-5" d="M86.57,743.76c2.72-.62,5.42-1.24,7.24-.84-8.91,12.48-5.97,12.22-4.7,14.14-3.77,6.1-7.53,12.17-11.18,18.45-6.76,4.26-14.17,8.93-20.92,13.18,3.85-8.34,8.7-17.48,12.6-25.84,6.23-7.01,11.61-13.07,16.96-19.08Z"/>
        <path class="cls-5" d="M97.42,781.34c5.43-1.24,28.68-24.94,30.78-21.83-3.75,6.1-7.39,12.39-11.12,18.49-8.05,6.71-16.06,13.4-24.13,20.13,2.06-6.36,3.32-11.48,4.47-16.78Z"/>
        <path class="cls-5" d="M155.14,811.36c14.75-13.03,16.49-10.43,17.39-6.82-4.1,7.84-9.18,16.55-13.24,24.37,6.32-4.55,13.66-9.98,20.08-14.36,9.09-7.48,12.37-7.3,6.73,9.84-4.96,4.24-8.92,7.61-13.88,11.85-1.19-1.73-2.27-3.28-3.46-5-9.14,9.71-17.38,18.39-26.63,27.9-1.23.5-3.33,2-5.45,3.54.55-3.77,1.25-7.4.94-10.16-.72-1.04-1.56-2.25-2.27-3.29,6.87-12.96,12.92-24.96,19.8-37.88Z"/>
        <path class="cls-5" d="M199.75,844.24c-5.1,13.19-5.43,17.34,4.04,5.88-9.47,11.46-9.14,7.31-4.04-5.88Z"/>
        <path class="cls-5" d="M226.18,882.31c-10.74,9.63-8.44,1.53-16.68,7.87,6.35-9.13,12.67-18.22,18.98-27.28-6.31,9.07-12.63,18.15-18.98,27.28,8.24-6.33,5.94,1.77,16.68-7.87Z"/>
        <path class="cls-5" d="M261.74,889.96c8.13-8.82,21.98-22.99,8.92,1.28-2.45-1.17-5.61-1.15-8.92-1.28Z"/>
        <path class="cls-2" d="M293.91,890.38c-2.81,4.98-4.78,8.96-6.76,12.96,6.47-4.36,13.8-9.77,20.26-14.14,0,2.21-.98,5.31-1.83,8.57,1.84-1.91,3.77-3.63,4.75-4.5.47.68.86,1.16,1.21,1.68-6.48,11.07-13.92,23-21.24,35.14.39.48.76.99,1.13,1.5,4.87-2.11,8.76-3.35,12.67-4.61-2.34,3.5-4.75,6.77-7.91,11.27-4.02,7.8-7.89,15.74-12.62,24.76-19.72,21.57-16.12,11.03-25.26,18.33-2.6-1.34-6.14-1.86-9.58-2.17-.62-.85-1.25-1.7-1.73-2.41,4.01-5.53,8.03-11.06,12.21-16.47,1.8-4.13,3.5-8.44,5.32-12.58-7.33,7.64-13.67,14.38-21.74,23.22-1.61.03-4.18.9-5.78.91,2.19-3.63,4.4-7.27,6.45-11.05,8.6-10.44,16.28-19.76,24.84-30.15,1.12-2.95,1.49-4.68,2.58-7.61,4.9-11.03-16.41,17.35-11.49,6.27,3.2-6.73,13.34-17.08,34.04-39.63.11.17.33.55.47.71Z"/>
        <path class="cls-5" d="M264.53,947.71c-1.82,4.14-3.52,8.45-5.32,12.58-4.19,5.41-8.2,10.95-12.21,16.47-1.36-1.88-2.84-3.95-4.2-5.83,8.07-8.84,14.41-15.58,21.74-23.22Z"/>
        <path class="cls-5" d="M311.54,894.95c13.29-12.7,10.34-3.4,14.35-2.26,5.83-5.22,12.63-11.32,18.48-16.56.37,2.7-.26,6.32-.74,10.09,1.33,4.07,1.68,9.05,2.17,14.18-16.51,19.34-33.03,38.67-49.65,57.79-3.92,1.27-7.84,2.54-12.58,4.82,4.73-9.02,8.6-16.96,12.62-24.76,3.15-4.5,5.57-7.77,7.91-11.27-3.91,1.26-7.8,2.51-12.67,4.61-.37-.51-.74-1.02-1.13-1.5,7.32-12.14,14.76-24.06,21.24-35.14Z"/>
        <path class="cls-2" d="M296.15,958.19c16.62-19.12,33.14-38.45,49.65-57.79,3.9.95,7.68,1.7,10.7,3.72,4.74-2.34,8.6-3.59,12.5-4.91-3.39,6.41-6.89,12.65-10.4,18.91-3.14,6.77-20.67,26.84-31.56,40.63-9.2,9.45-10.07,8.25-10.8,7.23,9.65-15.47,19.31-30.92,28.87-46.55-13.21,15.01-25.7,28.8-38.19,42.56-3.91-.97-7.72-1.77-10.78-3.8Z"/>
        <path class="cls-5" d="M345.12,919.43c-9.57,15.63-19.23,31.08-28.87,46.55-2.83-1.67-6.5-2.29-9.31-3.99,12.48-13.77,24.98-27.56,38.19-42.56Z"/>
        <path class="cls-5" d="M373.84,894.82c3.87-1.28,7.87-2.41,11.74-3.7-3.51,8.49-7.95,17.82-11.45,26.31-13.77,15.12-29.1,31.94-42.9,47.09-1.35-1.88-2.82-3.93-4.19-5.78,10.89-13.79,28.42-33.86,31.56-40.63,3.51-6.26,7.01-12.5,10.4-18.91,1.08-.71,3.01-2.45,4.84-4.39Z"/>
        <path class="cls-5" d="M472.28,818.2c.71,1.01,1.53,2.18,2.25,3.18-8.41,10.49-16.83,21-24.43,30.48-4.79,4.4-9.49,8.99-14.32,13.43,2.66-5.23,4.35-9.56,6.15-13.68,9.74-10.87,20.47-22.67,30.35-33.41Z"/>
        <path class="cls-2" d="M374.14,917.44c9.08-9.66,8.09-6.52,14.14-11.48,1.94-1.77,3.86-3.53,4.83-4.41,7.62-5.01,14.51-8.79,21.25-12.73.48.67.86,1.15,1.21,1.67,7.6-9.48,13.51-16.85,20.21-25.2,4.83-4.43,9.52-9.03,14.32-13.43-6.14,9.26-12.26,18.48-18.37,27.69-4.43,4.91-8.89,9.83-13.23,14.92-4.07,7.64-8.14,15.28-13.04,23.98,2.41-1.09,4.93-2,6.52-2.07,2.65-.76,4.48-.49,7.12-1.23.64.8,1.22,1.67,1.73,2.32-16.98,27.4-29.47,41.18-38.43,53.06-11.46,10.8-1.21-10.46-20.79,13.42-1.88-2.52-3.98-5.41-5.94-8.13-1.52-1.99-3.13-4.19-4.73-6.41-10.67,7.47-11.54,6.28-12.65,4.75-2.35-3.22-4.71-6.44-7.06-9.66,13.8-15.15,29.13-31.97,42.9-47.09Z"/>
        <path class="cls-5" d="M431.73,879.56c1.11,1.49,2.32,3.16,3.4,4.67-7.92,11.19-15.12,21.15-23.15,32.16-1.59.07-4.11.97-6.52,2.07,4.9-8.7,8.97-16.34,13.04-23.98,4.33-5.09,8.79-10.01,13.23-14.92Z"/>
        <path class="cls-2" d="M221.2,929.47c40.37-51.02,24.32-19.7,40.54-39.51,3.31.14,6.47.11,8.92,1.28.1,2.4-.66,5.86-1.42,9.32-5.13,6.2-10.3,12.43-16.32,19.7-6.12,11.53-13.13,24.15-20.24,36.61-2.68,2.92-5.5,5.69-8.19,8.62-1.23-1.72-2.46-3.44-3.58-4.99,4.84-7.44,9.7-14.92,14.5-22.3-.75-1.01-1.49-2.04-2.34-3.24-6.14,4.84-13.12,10.7-19.28,15.56,2.7-7.41,4.69-13.63,7.4-21.03Z"/>
        <path class="cls-9" d="M62.43,554.08c21.96-18.73,20.46-6.34,30.81-9.39-3.04,7.39-6.07,14.77-8.98,22.33,16.96-12.01,14.54,1.18,30.25-10.4-21.54,29.11,4.94,12.78,2.34,25.63,21.56-19.29-3.61,13.68,1.22,13.99,4.07,6.43,4.41,19.09,16.78,14.28-.92,3.39-.94,5.78-1.84,9.15-8.31,3.89-23.3,23.79-39.88,41.28-.33-.53-.68-1.05-1.03-1.55l-4.36-6.83c-.11-.18-.34-.52-.56-.86-7.08-3.86,11.22-37.98-4.68-29.08-3.95,1.07-7.89,2.14-11.83,3.2-1.66-2.63-3.23-5.07-4.87-7.72-1.22-1.91-2.45-3.84-3.68-5.76-.3-2.92.21-7.02.81-10.93.02-2.38.99-5.79.99-8.15,4.32-6.16,7.82-11.16,12.12-17.3-3.48,1.72-6.89,3.66-11.2,6.57.51-4.08,1.11-7.96.82-10.87-2-.77.85-8.54-16.47,7.86,1.53-4.89,3.07-9.77,4.61-14.67,3.44-4.3,5.98-7.61,8.63-10.77Z"/>
        <path class="cls-6" d="M36.03,595.23c4.46-5.11,8.79-10.4,13.17-15.71-4.37,5.31-8.71,10.6-13.17,15.71Z"/>
        <path class="cls-7" d="M93.22,696.91c-1.02.83-3.05,2.49-4.16,3.13,1.11-.64,3.14-2.3,4.16-3.13Z"/>
        <path class="cls-7" d="M401.66,871.22c3.99-5.57,7.97-11.13,12.08-16.54-4.11,5.41-8.09,10.97-12.08,16.54Z"/>
        <path class="cls-5" d="M117.08,778c28.96-19.86,12.9,7.68,29.16-.8-1.95,4.08-3.8,8.36-5.72,12.42-.85,3.44-.77,5.82-1.63,9.28-11.82,12.66-22.76,24.32-34.71,36.82-.14-.15-.38-.5-.49-.69,3.51-8.69,8.06-18.25,11.6-26.94-1.06-1.57-2.24-3.31-3.26-4.91,2.92-7.35-9.33,4.81-12.26,5.07,5.6-9.78,11.71-20.46,17.32-30.25Z"/>
        <path class="cls-5" d="M186.09,824.39c.03,4.63,13.74-14.5,20.66-13.58.34.54.69,1.04,1.04,1.57-1.77,4.25-3.69,8.35-5.53,12.68-5.21,6.11-11.33,13.29-16.59,19.46-2.57.82-5.02,1.82-6.72,1.63,3.43-6.51,2.59-7.72,7.14-21.75Z"/>
        <path class="cls-5" d="M226.8,883.14c18.12-17.18,18.7-16.33,17.53-8.95,8.11-6.54,16.21-13.07,24.18-19.8-2.87,6.91-6.01,14.44-8.87,21.33,4.39-2.74,7.97-4.52,11.51-6.25-10.23,14.81-18.87,27.41-9.43,20.48-16.22,19.82-.17-11.5-40.54,39.51-.73-1.03-1.58-2.24-2.31-3.28,5.41-8.08,9.99-15.16,14.56-22.21.16-4.3.44-8.44-.28-11.69-.34-.54-.71-1.05-1.19-1.74-1.68-2.41-3.48-4.99-5.17-7.41Z"/>
        <path class="cls-5" d="M226.18,882.31c.25.34.49.67.62.83-.13-.16-.38-.49-.62-.83Z"/>
        <path class="cls-5" d="M293.91,890.38c8.8-7.82,18.22-17.03,26.86-25-4.04,7.74-8.33,15.17-13.36,23.81-6.46,4.37-13.79,9.78-20.26,14.14,1.97-3.99,3.95-7.97,6.76-12.96Z"/>
        <path class="cls-5" d="M293.44,889.67c.11.17.33.55.47.71-.13-.16-.35-.53-.47-.71Z"/>
        <path class="cls-2" d="M369.01,899.21c1.08-.71,3.01-2.45,4.84-4.39-1.83,1.94-3.75,3.68-4.84,4.39Z"/>
      </g>
    </g>
  </g>
</svg>