<?xml version="1.0" encoding="UTF-8"?>
<svg id="Layer_2" data-name="Layer 2" xmlns="http://www.w3.org/2000/svg" viewBox="0 0 87.2 85.99">
  <defs>
    <style>
      .cls-1 {
        fill: #b68cff;
      }
    </style>
  </defs>
  <g id="Layer_1-2" data-name="Layer 1">
    <path class="cls-1" d="M84.76,33.78l-11.64-3.88c-1.71-.57-2.72-2.33-2.36-4.09l2.45-12.03c.57-2.76-2.16-5.05-4.79-4.02l-11.42,4.51c-1.67.66-3.57-.03-4.43-1.61l-5.85-10.8c-1.35-2.48-4.91-2.48-6.25,0l-5.86,10.8c-.85,1.58-2.75,2.27-4.43,1.61l-11.42-4.51c-2.62-1.03-5.35,1.26-4.79,4.02l2.46,12.03c.36,1.76-.65,3.52-2.36,4.09l-11.65,3.88c-2.67.9-3.29,4.41-1.08,6.16l9.61,7.64c1.41,1.12,1.76,3.11.82,4.64l-6.42,10.47c-1.48,2.4.3,5.49,3.12,5.41l12.28-.33c1.8-.04,3.35,1.26,3.61,3.03l1.81,12.15c.41,2.79,3.76,4.01,5.87,2.14l9.2-8.14c1.34-1.2,3.37-1.2,4.71,0l9.19,8.14c2.12,1.87,5.46.65,5.88-2.14l1.8-12.15c.27-1.77,1.82-3.07,3.62-3.03l12.27.33c2.82.08,4.6-3.01,3.13-5.41l-6.43-10.47c-.94-1.53-.58-3.52.82-4.64l9.62-7.64c2.21-1.75,1.59-5.26-1.09-6.16ZM43.6,60.25c-8.85,0-16.03-7.18-16.03-16.03s7.18-16.03,16.03-16.03,16.03,7.17,16.03,16.03-7.17,16.03-16.03,16.03Z"/>
  </g>
</svg>